<?xml version="1.0" encoding="UTF-8"?>
<svg id="_레이어_1" data-name="레이어_1" xmlns="http://www.w3.org/2000/svg" version="1.1" viewBox="0 0 3000 677.46">
  <!-- Generator: Adobe Illustrator 29.0.1, SVG Export Plug-In . SVG Version: 2.1.0 Build 192)  -->
  <path d="M381.97,667.61c-12.51,9.28-30.45,10.31-45.43,9.71-15.97-.63-34.04-1.51-48.49-8.88-21.38-10.9-31.9-32.27-35.93-55.08-3.22-18.34,1.38-36.29-.18-54.49-2.04-23.54-19.01-49.78-44.29-52.54-14.02-1.51-24.88,7.78-27.89,21.24-2.35,10.51-.4,21.87,2.07,32.19,5.78,24.01,6.44,47.06-6.96,68.9-10.99,17.93-27.92,33.16-48.13,40.15-23.25,8.07-49.83,4.52-71.82-5.74-7.54-3.52-14.69-7.96-21.08-13.3-10.56-8.85-20.21-19.21-25.82-31.95-18.14-41.2-3.79-90.5,25.81-122.51,9.97-10.79,21.9-19.65,32.55-29.76,16.42-15.56,31.82-35.98,35.17-59.14,1.89-13.08-1-23.88-6.26-33.72-5.86-10.95-14.5-19.92-22.05-29.68-9.91-12.82-21.71-25.63-26.45-41.48-14.28-47.83,40.79-90.05,85-80.2,14.15,3.15,25.51,12.73,32.27,25.37,13.08,24.46-1.43,83.99,39.38,86.41,14.73.87,28.08-6.71,37.29-17.84,9.37-11.33,15.78-22.22,29.32-29.13,13.02-6.65,27.58-9.77,42.05-11.22,22.52-2.25,46.47,3.18,64.71,16.88,19.73,14.83,29.72,40.21,30.74,64.4.34,8.35-.03,16.93-1.82,25.11-7.4,33.76-37.64,46.35-68.37,52.46-10.87,2.17-18.64,6.85-22.85,17.44-9.2,23.2,7.82,43.38,22.26,59.72,11.77,13.32,25.35,24.16,39.06,35.38,34.6,28.32,45.4,92.22,6.14,121.3ZM235.55,380.94c-11.39-2.55-23.32-5.46-35.01-3-5.54,1.16-10.94,3.61-14.88,7.68-4.21,4.34-6.52,10.47-6.22,16.51.31,6.04,3.26,11.9,7.97,15.7,6.32,5.08,14.93,6.15,23.03,6.13,10.84-.06,21.85-1.79,31.57-6.6,5.75-2.84,11.09-6.52,12.57-13.22,2.01-13.09-2.6-18.93-19.03-23.19Z"/>
  <path d="M814.22,624.82c-8.8,27.93-43.25,43.12-70.44,43.85-13.65.36-28.27-2.83-38.22-12.79-15.14-15.16-6.56-33.18-13.43-50.74-4.58-11.73-17.65-15.05-28.96-12.62-26.31,5.66-33.16,37.21-52.24,53.56-33.67,28.83-96.7,41-137.63,22.78-28.8-12.8-52.35-46.5-50.31-78.58,1.21-19.18,11.63-36.95,25.55-50.22,31.6-30.12,75.88-39.9,116.1-52.89,30.69-9.92,61.32-23.67,87.33-42.94,33.63-24.92,81.68-85,44.76-126.54-10.57-11.92-27.09-17.41-43.04-17.3-25.68.18-50.88,15.1-64.33,36.87-13.95,22.58-10.41,51.01-19.04,75.41-13.54,38.31-57.34,63.7-95.82,44.72-29.03-14.31-53.76-46.68-57.44-79.06-2.19-19.23,3.28-38.76,12.6-55.72,30.62-55.73,89.07-89.2,150.64-101.7,18.9-3.82,38.09-5.69,56.86-5.61,63.47.28,141.71,11.96,161.27,83.29,9.26,33.78,1.74,69.11-10.06,101.24-9.92,27.06-31.67,52.94-33.21,82.36-2.9,55.3,76.92,85.99,59.06,142.62ZM617.85,533.72c-10.74.05-21.89,1.65-31.92,5.57-12.56,4.92-37.45,21.44-27.42,37.84,8.52,13.96,30.77,5.14,41.63-.77,11.11-6.06,24.54-15.27,30.02-27.14,4.16-9.01-3.56-15.52-12.32-15.5Z"/>
  <path d="M1195.08,329.42c-.53,18.15-14.57,34.18-32.89,36.15-13.38,1.43-23.92-4.86-32.95-13.99-10.37-10.48-23.25-21.19-38.54-12.99-6.64,3.55-11.53,9.91-14.09,16.99-4.52,12.57-1.99,26.56,2.29,38.82,9.01,25.71,26.48,43.83,42.76,64.97,23.56,30.58,28.79,67,22.76,104.59-6.37,39.71-31.09,66.79-63.6,87.93-15.91,10.35-33.3,18.66-51.93,22.67-36.91,7.96-76.34-1.26-109.76-17.53-29.28-14.24-58.05-33.28-77.95-59.83-22.94-30.6-27.72-66.31-19.34-103.22,3.75-16.49,9.71-32.46,17.09-47.66,11.63-23.92,29.11-41.57,55-48.83,15.26-4.27,33.21-6.99,48.59-2.85,7.52,2.03,18.59,6.5,30.33,10.07,17.24,5.26,47.34,10.94,54.78-11.69,6.19-18.85-8.24-34.86-14.68-51.25-13.59-34.64-12.52-74.45,13.66-102.97,19.91-21.7,51.99-33.65,80.58-23.78,29.51,10.21,53.94,35.25,69.37,61.73,9.16,15.71,19.06,33.93,18.52,52.69ZM1018.81,542.35c-1.45-8-8.21-14.11-15.7-16.6-10.91-3.62-22.38,6.14-32.46-.73-6.97-4.76-12-10.25-20.13-13.34-12.94-4.9-30.71-.72-28.86,16.45.08.76.19,1.53.34,2.27,3.41,17.91,23.24,24.83,39.56,20.84,13.01-3.18,22.52,10.64,35.57,11.82,12.71,1.14,24.21-6.86,21.68-20.7Z"/>
  <path d="M1335.35,366.66c-3.38,10.07-7.31,20.16-8.4,30.51-2.34,22.08,2.16,44.76,13.3,64.7,11.71,20.92,26.32,40.62,32.17,63.7,14.65,57.86-24.8,117.11-83.55,143.1-36.65,16.22-77.79,10.04-103.38-18.86-19.68-22.21-24.7-57.04-8.85-82.01,15.92-25.09,47.89-38.58,64.17-63.9,8.65-13.45,12.71-29.22,8.54-44.42-4.39-15.98-15.31-29.79-21.27-45.26-11.27-29.25-24.59-79.05,4.47-104.14,14.59-12.6,36.7-17.37,56.66-17.01,21.69.38,39.28,13.22,47.55,30.58,6.99,14.69,3.34,28.83-1.42,43.03Z"/>
  <path d="M1779.43,624.82c-8.8,27.93-43.25,43.12-70.44,43.85-13.65.36-28.27-2.83-38.22-12.79-15.14-15.16-6.56-33.18-13.43-50.74-4.58-11.73-17.65-15.05-28.96-12.62-26.31,5.66-33.16,37.21-52.24,53.56-33.67,28.83-96.7,41-137.63,22.78-28.8-12.8-52.35-46.5-50.31-78.58,1.21-19.18,11.63-36.95,25.55-50.22,31.6-30.12,75.88-39.9,116.1-52.89,30.69-9.92,61.32-23.67,87.33-42.94,33.63-24.92,81.68-85,44.76-126.54-10.57-11.92-27.09-17.41-43.04-17.3-25.68.18-50.88,15.1-64.33,36.87-13.95,22.58-10.41,51.01-19.04,75.41-13.54,38.31-57.34,63.7-95.82,44.72-29.03-14.31-53.76-46.68-57.44-79.06-2.19-19.23,3.28-38.76,12.6-55.72,30.62-55.73,89.07-89.2,150.64-101.7,18.9-3.82,38.09-5.69,56.86-5.61,63.47.28,141.71,11.96,161.27,83.29,9.26,33.78,1.74,69.11-10.06,101.24-9.92,27.06-31.67,52.94-33.21,82.36-2.9,55.3,76.92,85.99,59.06,142.62ZM1583.06,533.72c-10.74.05-21.89,1.65-31.92,5.57-12.56,4.92-37.45,21.44-27.42,37.84,8.52,13.96,30.77,5.14,41.63-.77,11.11-6.06,24.54-15.27,30.02-27.14,4.16-9.01-3.56-15.52-12.32-15.5Z"/>
  <path d="M1822.18,526.43c2.23-50.3-29.27-98.9-34.84-148.72-.83-7.44-1.08-14.91-.56-22.41,1.17-16.76,6.64-33.86,20.11-46.75,21.79-20.84,64.14-26.18,93.86-11.81,16.45,7.95,28.42,20.72,36.63,34.43,8.21,13.7,13,28.44,17.95,43.03,11.04,32.47,23.24,64.93,42.35,95.1,5.64,8.91,13.75,18.64,26.29,19.76,10.03.9,19.5-4.47,24.39-11.31,16.07-22.47,3.6-53.63-8.35-75.72-12.71-23.47-29.96-45.68-38.08-70.51-7.02-21.46-5.32-47.25,13.2-64.71,38.91-36.72,122.39-51.97,166.09-11.13,19.94,18.64,27.03,44.99,19.21,68.23-10.28,30.53-43.15,53.23-56.82,82.89-9.14,19.84-9.16,41.61-7.6,62.79,2.4,32.58,8.27,65.03,17.53,96.93,8.34,28.71,13.74,76.74-15.78,99.47-25.72,19.79-69.28,11.56-93.17-6.37-23.04-17.28-33.35-41.48-40.36-65.07-6.96-23.45-13.92-46.9-20.89-70.35-5.97-20.12-16.21-39.17-32.31-55.77-3.92-4.03-25.6-19.53-26.38-7.17-1.23,19.67,3.22,39.62,12.91,57.93,14.51,27.42,39.08,53.43,36.61,84.39-1.66,20.9-18.18,35.95-43.22,42.14-26.72,6.61-64.84,7.41-88.38-6.56-11.67-6.93-19.36-17.42-23.33-28.43-10.1-28.04,1.69-56.2,2.94-84.28h0Z"/>
  <path d="M2348.54,370.14c-9.44-11.11-23.07-16-37.29-12-23.56,6.62-33.71,35.09-35.11,57.11-1.37,21.47,3.36,43.43,8.38,64.19,7.12,29.51,35.23,54.43,66.21,55.83,25.72,1.16,45.59-26.21,66.33-37.65,31.68-17.47,63.52-11.94,93.75,5.86,51.13,30.11,58.06,112,8.7,146.82-25.57,18.04-57.57,29.7-89.17,26.7-32.73-3.1-55.35-24.98-80.44-43.73-23.03-17.21-48.75-23.79-74.81-34.81-30.76-13.01-50.81-37.72-61.47-69.16-2.19-6.46-4.02-13.05-5.52-19.71-1.11-4.87-2.09-9.78-2.95-14.7-11.6-66.22-2.1-137.12,32.46-195.37,31.84-53.67,97.87-98.35,161.29-69.09,32.54,15.02,56.89,43.91,76.73,72.84,17.53,25.58,27.66,58.11,25.87,89.25-1.6,28.07-16.41,55-42.25,67.49-16.49,7.98-37.86,8.87-55.32,3.75-16.37-4.8-28.38-17.16-34.94-32.66-3.99-9.41-5.53-19.77-7.59-29.89-2.29-11.21-5.24-22.1-12.85-31.08Z"/>
  <path d="M2639.49,508.2c16.19-10.81,22.28-31.74,21.2-51.09-1.4-24.79-13.35-47.84-28.01-66.9-15.11-19.65-32.5-38.06-42.21-61.09-11.11-26.34-10.8-57.84,1.78-83.37,12.57-25.53,37.46-44.32,64.87-47.79,32.4-4.09,61.54,13.1,78.72,41.11,6.86,11.16,12.56,23.97,23.42,30.88,19.19,12.22,43.55-1.85,59.03-14.31,13.52-10.89,24.61-25.29,39.69-34.03,14.03-8.14,30.62-10.97,46.57-9.93,36.4,2.36,85.25,19.44,93.89,61.45,4.16,20.21-.05,43.17-12.28,59.57-24.23,32.49-79.03,37.36-112.42,19.21-19.59-10.65-37.76-21.35-60.1-24.32-14.68-1.95-29.86-1.89-43.95,2.78-14.09,4.67-27.03,14.37-33.68,28.09-10.34,21.36-2.87,48.98,16.2,62.23,28.25,19.62,58.74,2.13,85.32-10.82,22.3-10.88,55.57-20.04,72.45,5.8,9.43,14.43,4.78,36.83-1.45,51.6-5.93,14.04-15.92,22.22-30.66,24.72-22.7,3.87-48.24-1.51-69.44-10.09-21.69-8.79-44.8-20.87-68.69-15.6-16.64,3.66-31.2,16.18-37.62,32.57-10.84,27.7,3.65,56.59,24.58,74.21,19.4,16.32,45.68,22.08,69.09,12.41,25.15-10.38,45.19-30.29,67.21-45.99,26.93-19.19,62.8-25.04,88.81-.18,13.76,13.16,20.26,32.36,21.96,51.32,1.77,19.82,1.27,38.15-10.1,55.13-16.01,23.91-49.95,35.65-77.12,30.48-27.32-5.2-47.61-27.17-72.79-37.74-18.99-7.97-39.76-11.3-60.15-9.69-21.13,1.66-41.04,10.08-60.54,18.13-16.51,6.82-33.14,13.68-50.61,17.01-31.65,6.03-67.96-3.71-84.35-34.83-13.83-26.26-8.39-57.83,10.2-79.72,10.58-12.45,24.85-21.05,39.65-26.97,11.18-4.48,22.37-8.15,31.53-14.26Z"/>
  <path d="M1289.32,257.89l3.93-90.68,63.76,56.35c7.76,6.86,18.52-3.9,11.66-11.66l-56.33-63.75,102.77-3.95c10.59-.41,10.59-16.11,0-16.51l-102.77-3.95,56.33-63.75c6.86-7.76-3.9-18.52-11.66-11.66l-63.75,56.34-3.94-96.73c-.41-10.59-16.11-10.59-16.51,0l-3.94,96.73-63.75-56.34c-7.76-6.86-18.52,3.9-11.66,11.66l56.33,63.75-102.77,3.95c-10.59.41-10.59,16.11,0,16.51l102.77,3.95-56.33,63.75c-6.86,7.76,3.9,18.52,11.66,11.66l63.76-56.35,3.93,90.68c.41,10.59,16.11,10.59,16.51,0Z"/>
</svg>