<?xml version="1.0" encoding="UTF-8"?>
<svg id="_레이어_1" xmlns="http://www.w3.org/2000/svg" version="1.1" viewBox="0 0 3000 2178.39">
  <!-- Generator: Adobe Illustrator 29.0.1, SVG Export Plug-In . SVG Version: 2.1.0 Build 192)  -->
  <path d="M2977.95,679.59v-.02c-21.05-70.95-59.06-145.04-109.78-214.02-101-141.59-255.41-158.12-362.86-158.25-89.8.29-180.82,23.22-268.85,45.4-17.4,4.38-35.28,8.89-52.98,13.18-4.83-5.46-9.55-10.68-14.07-15.6-65.7-72.66-147.05-133.53-241.69-180.87-67.92-34.43-134.27-62.93-197.53-84.79C1517.06,15.19,1339.08-10.69,1170.24,3.15c-45.76,3.42-94.22,8.76-152.56,16.81-63.6,8.91-138.62,20.71-212.69,40.48-251.52,64.67-417.85,223.49-547.33,370.28C128.6,576.24-2.92,757.29.05,996.67v.3c.32,74,18.04,151.06,52.59,228.96,40.06,91.5,94.98,188.85,172.84,306.34,48.27,73,83.07,113.24,131.23,168.91,12.04,13.93,24.93,28.81,39.06,45.42,53.44,62.88,114.74,119.21,168.87,168.95,35.21,32.16,73.19,66.2,112.23,97.2,65.81,52.83,136.33,77.18,210.98,102.96,15.03,5.19,30.57,10.55,45.83,16.09,85.22,31.6,172.34,47.04,265.89,47.04,5.91,0,11.85-.06,17.82-.18,144.05-4.21,266.53-20.41,374.42-49.52,134.42-36.26,248.29-94.04,338.47-171.73l.38-.33c22.66-20.55,45.45-40.55,67.5-59.89,99.24-87.09,193.14-169.47,255.57-284.44,50.6-1.26,92.99-9.29,147.43-27.66,24.1-8.19,55.62-17.13,89-26.58,140.01-39.68,331.76-94.02,380.17-201.02l.17-.39c30.35-69.57,59.02-135.27,82.02-206.87,30.82-95.83,47.25-201.34,47.49-305.16,0-60.28-7.42-115.96-22.04-165.47h0ZM2066.21,1579.03c-59.95,43.13-125.68,78.24-194.05,104.54-6.46,2.79-18.05,6.91-20.02,12.09-5.92,15.05,116.32,32.63,133.3,39.68,37.66,11.57,24.11,18.42-6.85,22.89-16.5,2.39-33.05,5.85-49.93,3.9-30.94-3.22-60.56-15.18-89.63-26.39-47.14-19-54.48-3.03-46.43,44.86,1.44,14.14,16.77,112.19-1.22,109.52-5.02-2.13-13.13-16.77-20.74-29.84-5-8.39-10.53-16.44-15.14-25.13-7.57-13.74-11.45-30.82-14.96-47.32-2.56-11.14-5.69-36.79-17.77-36.37-7.54-.25-18.4,10.06-24.92,16.08-21.04,19.81-43.61,37.89-63.98,58.42-6.6,6.62-13.73,13.59-21.3,18.7-17.81,12.54-39.29,14.11-57.53,26.28-16.06,10.05-31.41,22.19-47.08,33.31-6.73,4.78-19.7,12.28-26.23,11.21-23.66-7.66,138.9-118.4,154.02-134.4,7.66-8.03,66.59-47.87,27.71-45.51-43.35,4.48-87.92,3.75-131.1,9.26-60.93,9.59-121.76,28.85-183.66,29.61-13.08-1.15-14.43-6.41-5.13-10.45,8.62-4.04,20.33-5.29,30.65-7.88,21.19-3.77,31.42-21.3,51.51-28.96,7.74-2.8,16.94-4.53,25.56-5.6,52.16-5.88,104.06-14.48,155.51-26.19,7.79-1.99,20.95-4.38,25.95-9.05,3.83-5.41-8.54-8.15-13.52-10.04-50.23-13.46-101.07-26.63-151.01-41.91-8.96-2.78-20.09-6.73-26.63-12.59-12.55-13.94,21.16-14.61,30.41-14.06,66.71,2.51,132.74,17.61,197.06,36.49,26.01,8.08,41.5,7.13,31.39-26.83-6.07-21.8-12.92-44.01-19.94-65.67-4.31-12.01-11.19-35.16-8.7-42.45,1.5-7.02,9.33-7.68,14.26-11.67,4.79-4.36,7.47-13.5,12.45-18.28,10.15-11.11,20.79,2.12,26.71,7.91,3.47,2.95,7.04-1.78,10.92-.55,8.93,4.14,12.51,18.39,15.76,27.71,7.85,27.39,14.55,55.56,20.27,83.33,1.96,10.76,7.55,28.4,16.89,24.08,37.22-21.62,45.48-65.16,73.4-97.4,13.62-14.99,26.38-34.19,44.09-43.97,22.65-9.91,28.65,18.1,22.51,36.7-9.82,36.77-56.27,64.1-75.54,91.8-1.57,5.07,5.8,2.19,11.23.4,35.51-14.37,71.99-33.22,109.77-41.48,22.93-5.14,46.3-5.67,68.71-11.14,11.07-2.48,22.93-6.81,34.05-7.55,5.14-.27,8.7.67,10.04,2.8l.14.24c2.22,9.92-13.23,20.45-21.26,26.86h-.03ZM2278.83,929.9c-2.23,7.28-4.69,14.51-7.36,21.65-2,5.36-4.11,10.67-6.33,15.96-3.7,8.79-7.68,17.49-11.9,26.05-5.06,10.28-10.46,20.41-16.12,30.35-1.88,3.32-3.79,6.61-5.72,9.89-2.9,4.92-5.85,9.79-8.84,14.63-6.98,11.27-14.2,22.32-21.49,33.11-19.22,28.34-38.4,52.97-58.02,74.61-6.04,6.66-12.12,13.04-18.26,19.16-6.13,6.11-12.33,11.97-18.6,17.59-3.13,2.81-6.28,5.55-9.45,8.24-12.68,10.76-25.66,20.61-39.06,29.71-8.37,5.69-16.92,11.09-25.65,16.24-6.11,3.6-12.33,7.09-18.64,10.46-3.15,1.69-6.33,3.35-9.54,4.98-1.6.82-3.21,1.63-4.83,2.43-3.23,1.61-6.5,3.2-9.79,4.76-37.87,18-79.53,33.02-126.81,47.82-23.44,7.22-46.87,14.59-70.29,21.94-31.51,9.9-63.36,19.91-95.32,29.58-9.59,2.9-19.19,5.78-28.8,8.61-16.02,4.72-32.04,9.33-48.06,13.77-3.2.89-6.4,1.77-9.6,2.64-12.81,3.49-25.61,6.87-38.38,10.11-9.58,2.43-19.15,4.78-28.69,7.03-3.18.75-6.36,1.49-9.54,2.23-15.89,3.66-31.72,7.05-47.47,10.12-8.21,1.55-16.47,3.01-24.73,4.38-12.4,2.06-24.83,3.92-37.28,5.63-16.59,2.28-33.17,4.27-49.67,6.07-8.25.9-16.48,1.75-24.67,2.56-4.09.4-8.18.8-12.26,1.18-8.15.77-16.27,1.51-24.33,2.22-8.06.71-16.07,1.4-24.02,2.07l-24.8,1.99c-37.82,3.03-76.06,6.1-114.39,9.14-12.78,1.01-25.56,2.02-38.35,3.03-21.91,1.72-43.82,3.42-65.65,5.1-14.56,1.12-29.07,2.22-43.55,3.31-28.94,2.17-57.68,4.28-86.07,6.3-7.33.45-14.69.9-22.06,1.33-22.12,1.28-44.38,2.32-66.62,2.4-2.47,0-4.94,0-7.41-.01-12.35-.08-24.68-.48-36.97-1.34-2.46-.17-4.91-.36-7.36-.57-15.95-1.35-31.8-3.5-47.5-6.73-3.92-.81-7.84-1.68-11.74-2.63-11.71-2.84-23.33-6.32-34.81-10.57-3.56-1.34-7.1-2.72-10.62-4.13-1-.4-2-.81-2.99-1.21-4.16-1.7-8.3-3.44-12.41-5.23-2.14-.93-4.28-1.88-6.41-2.84-1.46-.66-2.93-1.32-4.39-1.99-6.07-2.79-12.1-5.68-18.1-8.66-1.57-.78-3.14-1.57-4.7-2.36-4.99-2.53-9.97-5.12-14.94-7.78-1.86-1-3.73-2-5.59-3.02-5.59-3.04-11.17-6.16-16.76-9.35-3.49-1.99-6.98-4.02-10.48-6.06-7-4.1-14.03-8.3-21.11-12.61-7.08-4.3-14.21-8.7-21.42-13.19-10.81-6.73-21.8-13.67-33.06-20.77-2.76-1.74-5.56-3.5-8.34-5.26-5.9-3.72-11.83-7.45-17.84-11.21-14.16-8.99-28.42-18.09-42.75-27.23-7.16-4.57-14.35-9.16-21.54-13.76s-14.4-9.2-21.6-13.82c-18.32-11.71-36.68-23.45-54.96-35.11-2.95-1.97-5.93-3.94-8.92-5.9-4.5-2.95-9.05-5.9-13.68-8.88-4.63-2.98-9.33-5.99-14.15-9.07-8.03-5.15-16.23-10.39-24.46-15.77-1.62-1.05-3.23-2.11-4.85-3.17-6.4-4.2-12.82-8.48-19.2-12.85-.92-.63-1.83-1.26-2.75-1.89-4.42-3.04-8.82-6.13-13.19-9.27-1.01-.72-2.01-1.45-3.02-2.18-2.66-1.93-5.31-3.88-7.94-5.85-1.01-.76-2.02-1.52-3.02-2.28-4.57-3.47-9.08-6.99-13.52-10.58-3.83-3.11-7.61-6.26-11.3-9.47-4.67-4.05-9.22-8.17-13.63-12.39-1.66-1.58-3.29-3.18-4.91-4.78-6-5.97-11.69-12.12-17.02-18.47-1.52-1.81-3.01-3.64-4.47-5.48-5.1-6.44-9.81-13.09-14.06-19.94-3.35-5.6-6.36-11.36-9.03-17.29-.89-1.97-1.75-3.96-2.56-5.97-1.31-3.21-2.52-6.47-3.63-9.78-1.12-3.3-2.14-6.66-3.06-10.05-2.31-8.49-4.02-17.28-5.14-26.35-1.11-9.07-1.63-18.44-1.54-28.1.03-3.86.17-7.77.39-11.73.45-7.91,1.29-16.03,2.51-24.33.61-4.15,1.32-8.34,2.12-12.6.4-2.12.83-4.26,1.28-6.4.9-4.29,1.9-8.63,2.99-13.03s2.28-8.83,3.57-13.32c2.57-8.97,5.53-18.15,8.87-27.52,1.67-4.68,3.44-9.41,5.31-14.21s3.83-9.61,5.89-14.5c3.09-7.32,6.39-14.76,9.92-22.31,1.17-2.51,2.37-5.04,3.6-7.58,2.45-5.08,4.99-10.21,7.63-15.4s5.38-10.41,8.21-15.7,5.76-10.61,8.79-16.01c4.54-8.07,9.3-16.27,14.29-24.58,4.98-8.3,10.18-16.73,15.6-25.27,5.42-8.54,11.05-17.2,16.91-25.97,1.22-1.83,2.45-3.66,3.69-5.5,2.48-3.67,4.99-7.37,7.54-11.08,1.28-1.86,2.56-3.72,3.86-5.59,5.18-7.47,10.52-15.03,16.01-22.67,12.26-16.43,24.88-32.37,37.79-48.01,4.3-5.21,8.63-10.38,13.01-15.53,6.49-7.65,13.06-15.25,19.68-22.78,6.62-7.53,13.3-15.03,20.02-22.48,13.45-14.91,27.08-29.67,40.85-44.46,3.3-3.54,6.6-7.08,9.91-10.63,3.19-3.36,6.39-6.75,9.61-10.16,3.22-3.41,6.46-6.84,9.71-10.28,24.87-26.35,51.01-54.06,77.9-80.8,3.84-3.82,7.69-7.62,11.56-11.39,6.63-6.47,13.32-12.87,20.02-19.15,2.24-2.09,4.47-4.17,6.72-6.24,4.48-4.13,8.98-8.21,13.5-12.24,3.21-2.86,6.42-5.68,9.64-8.47,3.22-2.79,6.44-5.54,9.67-8.25.74-.62,1.48-1.24,2.22-1.86,3.71-3.09,7.43-6.13,11.15-9.11,7.63-6.12,15.29-11.99,22.95-17.57,8.76-6.37,17.53-12.38,26.28-17.9l.05-.03.35-.23c13.9-8.84,28.23-16.82,42.87-24.08,2.09-1.04,4.18-2.06,6.28-3.07,11.2-5.38,22.56-10.36,34-15.02,3.81-1.55,7.63-3.07,11.46-4.55,1.91-.74,3.83-1.47,5.75-2.2,5.75-2.17,11.51-4.27,17.29-6.3s11.53-4,17.31-5.92c3.84-1.28,7.68-2.53,11.52-3.76,5.75-1.84,11.49-3.64,17.22-5.39,5.72-1.75,11.42-3.47,17.1-5.15,59.4-17.34,121.69-34.04,181.91-50.19,24.65-6.61,49.18-13.2,73.11-19.71,9.63-2.48,19.28-5.01,28.94-7.54,14.55-3.81,29.19-7.65,43.89-11.34,4.9-1.23,9.8-2.44,14.73-3.64,4.91-1.19,9.83-2.36,14.76-3.5,11.9-2.76,23.83-5.34,35.77-7.67.8-.16,1.6-.31,2.4-.47,6.6-1.27,13.21-2.46,19.81-3.55.81-.13,1.62-.27,2.43-.4,4.19-.68,8.38-1.32,12.58-1.92.69-.1,1.39-.2,2.08-.29,4.31-.6,8.62-1.15,12.93-1.66,3-.35,6.01-.68,9.01-.98,7.01-.7,14.03-1.26,21.03-1.66.28-.02.55-.03.83-.05,4.73-.26,9.46-.45,14.19-.56,2.54-.06,5.07-.1,7.6-.11,7.37-.04,14.73.12,22.07.5,5.16.27,10.34.65,15.53,1.13,1.73.16,3.45.33,5.18.52,6.91.73,13.83,1.65,20.72,2.71,2.02.31,4.03.64,6.04.97,3.15.52,6.29,1.08,9.43,1.66,1.71.32,3.43.64,5.14.98,3.79.74,7.57,1.52,11.34,2.33,4.72,1.02,9.43,2.08,14.11,3.2,3.9.93,7.78,1.89,11.64,2.87,11.57,2.95,22.93,6.13,33.96,9.39,9.02,2.67,17.84,5.39,26.38,8.08,63.83,20.47,129.82,43.7,193.65,66.15,9.42,3.31,18.83,6.62,28.21,9.91,13.38,4.7,26.7,9.36,39.92,13.97,5.05,1.79,10.02,3.56,14.93,5.31s9.72,3.48,14.49,5.2c4.75,1.72,9.44,3.42,14.06,5.11,6.92,2.54,13.7,5.06,20.32,7.57,4.42,1.67,8.77,3.34,13.07,5.01,8.58,3.34,16.93,6.68,25.05,10.06,8.12,3.38,16.03,6.8,23.74,10.28,3.85,1.74,7.66,3.5,11.42,5.29,1.88.89,3.75,1.79,5.61,2.69,5.57,2.71,11.05,5.47,16.45,8.3,7.18,3.77,14.22,7.67,21.12,11.72,5.17,3.04,10.27,6.16,15.31,9.39,3.35,2.15,6.68,4.35,9.98,6.59,4.95,3.37,9.85,6.85,14.7,10.45,3.23,2.4,6.44,4.86,9.64,7.38,3.19,2.52,6.37,5.1,9.53,7.74,4.74,3.96,9.45,8.07,14.14,12.35,9.37,8.53,18.66,17.71,27.93,27.62,1.55,1.65,3.09,3.33,4.64,5.02,2.32,2.54,4.64,5.13,6.96,7.77,6.96,7.92,13.94,16.29,20.96,25.16,1.56,1.97,3.12,3.96,4.69,5.98,1.17,1.51,2.35,3.04,3.53,4.58,8.24,10.8,16.58,22.31,25.06,34.58,8.89,12.55,17.86,25.45,27.09,39.04,1.32,1.94,2.64,3.9,3.98,5.87.74,1.09,1.48,2.19,2.23,3.3,4.56,6.77,9.19,13.72,13.94,20.89,1.27,1.92,2.54,3.85,3.82,5.79,1.89,2.87,3.8,5.78,5.72,8.72,1.38,2.11,2.77,4.24,4.17,6.39,2.36,3.63,4.76,7.32,7.18,11.07,2.72,4.21,5.48,8.5,8.29,12.89,2.65,4.14,5.35,8.35,8.08,12.65,2.73,4.29,5.51,8.66,8.33,13.13,4.51,7.19,9.14,14.62,13.82,22.24,2.34,3.81,4.68,7.67,7.03,11.58,1.17,1.95,2.35,3.92,3.52,5.9,9.4,15.83,18.76,32.37,27.52,49.44,1.09,2.13,2.18,4.27,3.25,6.42,1.43,2.86,2.85,5.74,4.24,8.63,2.79,5.78,5.49,11.61,8.08,17.49,1.3,2.94,2.57,5.88,3.81,8.84l.16.37c31.61,71.2,29.47,138.15,10.51,200.07v.08ZM2682.53,921.59v.04c-.48,16.33-1.69,32.46-3.47,48.34-.59,5.29-1.25,10.56-1.97,15.8-.72,5.24-1.49,10.44-2.33,15.63-.42,2.59-.84,5.17-1.29,7.74-.88,5.14-1.82,10.26-2.8,15.34-.49,2.54-.99,5.07-1.51,7.59-1.54,7.57-3.18,15.06-4.89,22.47-2.86,12.35-5.95,24.45-9.18,36.29-1.94,7.1-3.93,14.12-5.95,21.02-4.72,16.12-9.62,31.68-14.49,46.61l-.13.43c-.52,1.74-1.06,3.45-1.62,5.13-3.92,11.78-8.74,22.25-14.39,31.57-.64,1.07-1.3,2.12-1.97,3.15-2,3.11-4.09,6.08-6.28,8.94-2.92,3.81-6,7.39-9.24,10.78-4.86,5.08-10.08,9.72-15.64,13.98-2.78,2.13-5.63,4.15-8.57,6.1-1.96,1.29-3.95,2.55-5.98,3.77s-4.09,2.4-6.19,3.55c-7.35,4.01-15.12,7.6-23.26,10.87-3.49,1.4-7.05,2.74-10.67,4.03-2.42.86-4.86,1.7-7.34,2.51-3.71,1.23-7.49,2.4-11.33,3.55-2.56.76-5.15,1.5-7.76,2.23-3.92,1.09-7.9,2.16-11.93,3.19-17.5,4.49-36.06,8.52-55.45,12.73-20.96,4.54-42.3,9.17-63.63,14.78-7.11,1.87-14.23,3.84-21.32,5.96h0c3.12-13.09,6.22-26.17,9.31-39.26,1.04-4.37,2.07-8.77,3.12-13.18,4.18-17.64,8.43-35.51,12.78-53.43,3.25-13.44,6.56-26.89,9.91-40.28l.68-2.9c2.24-9.49,4.48-19.02,6.7-28.56,1.33-5.72,2.66-11.46,3.97-17.21,3.06-13.4,6.04-26.84,8.87-40.33.81-3.85,1.61-7.71,2.39-11.56.78-3.85,1.55-7.72,2.3-11.58,1.13-5.8,2.22-11.6,3.27-17.42.7-3.87,1.38-7.75,2.04-11.63.99-5.82,1.94-11.64,2.83-17.48.6-3.89,1.17-7.78,1.72-11.67.82-5.84,1.59-11.68,2.29-17.54.47-3.9.91-7.8,1.32-11.71.21-1.95.41-3.91.6-5.86.38-3.91.73-7.82,1.06-11.73.64-7.82,1.15-15.67,1.52-23.51.09-1.96.18-3.92.25-5.88.22-5.88.37-11.77.42-17.67.02-1.96.03-3.93.02-5.89v-.04c0-3.92-.05-7.84-.13-11.76-.13-5.9-.35-11.8-.67-17.72-.21-3.81-.46-7.61-.75-11.42-.02-.3-.05-.59-.07-.89-.3-3.78-.63-7.55-1.02-11.33-1.36-13.45-3.29-26.9-5.84-40.37-.52-2.76-1.07-5.52-1.65-8.28-.32-1.56-.65-3.11-.99-4.67-1.12-5.64-2.35-11.29-3.66-16.96-1.47-6.33-3.04-12.69-4.74-19.04-.36-1.35-.72-2.7-1.09-4.05-1.55-5.66-3.17-11.32-4.9-16.99-1.94-6.36-3.99-12.73-6.16-19.09,2.37-.08,4.74-.16,7.11-.23,1.53-.05,3.06-.1,4.59-.15,3.05-.1,6.09-.2,9.12-.29s6.05-.18,9.06-.26c6.02-.16,12-.28,17.96-.34,1.49-.02,2.97-.03,4.45-.04s2.96-.01,4.44,0c2.98,0,5.95.02,8.91.07,2.87.04,5.73.11,8.58.19,3.04.09,6.06.21,9.08.36,2.73.14,5.45.3,8.16.49.2.01.39.03.59.04,4.08.29,8.14.65,12.19,1.07.31.03.61.07.92.1,3.92.43,7.83.92,11.73,1.5.42.06.85.13,1.27.19,2.37.36,4.73.75,7.09,1.17,1.83.33,3.65.67,5.47,1.03,5.46,1.09,10.9,2.35,16.32,3.82l.63.16c32.33,7.64,58.51,23.21,78.99,43.7,1.95,1.95,3.85,3.95,5.7,5.99s3.64,4.12,5.39,6.24c3.49,4.24,6.78,8.64,9.87,13.18,1.54,2.27,3.04,4.57,4.48,6.9,2.89,4.67,5.58,9.46,8.07,14.37,1.25,2.45,2.45,4.93,3.6,7.43,1.15,2.5,2.25,5.03,3.3,7.57,13.18,31.84,18.84,67.04,17.79,100.51h-.01ZM2429.29,895.34c-.05,5.89-.2,11.78-.42,17.67.22-5.88.37-11.77.42-17.67ZM2409.78,746.95c1.69,6.35,3.27,12.71,4.74,19.04-1.47-6.33-3.04-12.69-4.74-19.04ZM1525.5,1634.95l-.47.22c-6.7,1.13-15.99-3.77-22.87-5.3-2.4-.81-2.87-1.24-1.02-1.22,2.4.46,29.87.94,24.37,6.31h-.01ZM1745.96,1638.28c-3.92-24.15-9.76-50.28-7.49-74.33,5.38,23.57,7.71,49.66,11.41,73.93.32,5.64,2.38,14.59.82,19.12l-.08-.05c-2.35-4.55-3.45-13-4.65-18.67h-.01ZM1730.95,1640.21c.09.52.18,1.04.27,1.56-.16-.45-.33-.91-.49-1.36.08-.06.14-.14.22-.2h0ZM1715.11,1708.8c-12.42,4.51-27,5.65-40.07,7.3v-.05c13.2-3.61,27.49-7.59,40.96-10.25,4.43-.21,1.24,2.16-.9,2.99h.01ZM1717.62,1525.51c2.66,10.3,5.36,23.81,5.65,34.3-2.83-10.52-4.71-23.56-5.7-34.29h.05,0ZM1884.86,1525.98c5.57-7.93,12.58-15.49,18.84-22.92,2.94-3.32,5.65-5.54,7.57-5.05l.4.13c6.39,5.73-3.02,22.01-8.86,24.02-3.54,1.73-7.56,1.93-11.37,2.83-4.55.84-7.52,2.6-6.57.98h0ZM1794.65,1664.46l.26-.17c23.01-11.36,49.18-18.29,73.31-27.54,5.21-1.62,14.07-5.44,17.95-5.85-23.66,10.73-49.51,20.31-74.06,29.52-2.14.81-21.25,7.48-17.46,4.03h0ZM1747.7,1738.8c4.96,22.44,9.15,46.89,12.52,69.63-1.54-3.96-3.43-15.73-5.73-27.21-.87-6.45-16.84-81.14-6.98-43.29l.21.87h-.01ZM2032.62,1581.83c-7.99,7.37-38.63,24.74-53.16,32.88-45.49,25.24-94.3,47.18-142.97,64.44l-.82.29c-12.17,4.9-37.48,11.35-43.38,9.37-8.27-3.22,18.65-12.45,22.34-13.8,63.69-22.76,125.83-49.76,185.99-80.53,9.39-4.41,23.62-12.47,32.42-14.24,1.03.17.1.99-.41,1.58h-.01ZM1934.8,1598.15h0c4.73-1.8,12.49-4.54,17.46-6.06-5.06,1.82-12.1,4.23-17.46,6.06ZM1408.82,104.36c-3.77-.81-7.54-1.59-11.34-2.33,3.79.74,7.57,1.52,11.34,2.33ZM1468.53,119.82c-11.03-3.26-22.39-6.44-33.96-9.39,11.57,2.95,22.93,6.13,33.96,9.39ZM1230.7,101.19c-6.6,1.09-13.21,2.28-19.81,3.55,6.6-1.27,13.21-2.46,19.81-3.55ZM2428.62,918.89c-.37,7.84-.88,15.68-1.52,23.51.64-7.82,1.15-15.67,1.52-23.51ZM2387.72,1156.71l-.68,2.9.68-2.9c2.24-9.49,4.48-19.02,6.7-28.56-2.22,9.54-4.46,19.07-6.7,28.56ZM2418.19,782.95c.34,1.56.67,3.11.99,4.67-.32-1.56-.65-3.11-.99-4.67-1.12-5.64-2.35-11.29-3.66-16.96,1.31,5.66,2.54,11.31,3.66,16.96ZM2351.91,1305.75c7.09-2.12,14.21-4.09,21.32-5.96-7.11,1.87-14.23,3.84-21.32,5.96h0ZM2634.52,1158.9l.13-.43-.13.43c-.52,1.74-1.06,3.45-1.62,5.13.56-1.68,1.1-3.39,1.62-5.13ZM2544.7,715.53c-5.41-1.47-10.84-2.73-16.32-3.82,5.46,1.09,10.9,2.35,16.32,3.82l.63.16-.63-.16ZM2361.23,1266.49c-3.1,13.09-6.19,26.17-9.31,39.26h0c3.12-13.09,6.22-26.17,9.31-39.26ZM2649.77,791.7c-1.44-2.33-2.94-4.64-4.48-6.9,1.54,2.27,3.04,4.57,4.48,6.9ZM2541.36,1256.75c8.14-3.27,15.91-6.86,23.26-10.87-7.35,4.01-15.12,7.6-23.26,10.87ZM2131.1,498.22c-9.23-13.6-18.2-26.49-27.09-39.04,8.89,12.55,17.86,25.45,27.09,39.04ZM2104,459.18c-8.47-12.29-16.81-23.78-25.06-34.58,8.24,10.8,16.58,22.31,25.06,34.58ZM1494.91,127.92c-8.53-2.7-17.35-5.42-26.38-8.08,9.02,2.67,17.84,5.39,26.38,8.08,63.83,20.47,129.82,43.7,193.65,66.15,9.42,3.31,18.83,6.62,28.21,9.91-9.38-3.29-18.79-6.6-28.21-9.91-63.83-22.46-129.82-45.68-193.65-66.15h0ZM1350.96,95.18c-5.18-.48-10.35-.86-15.53-1.13,5.16.27,10.34.65,15.53,1.13ZM815.36,208.8c-5.67,1.68-11.37,3.39-17.1,5.15,5.72-1.75,11.42-3.47,17.1-5.15,59.4-17.34,121.69-34.04,181.91-50.19,24.65-6.61,49.18-13.2,73.11-19.71,9.63-2.48,19.28-5.01,28.94-7.54,14.55-3.81,29.19-7.65,43.89-11.34-14.71,3.69-29.34,7.53-43.89,11.34-9.66,2.53-19.32,5.06-28.94,7.54-23.93,6.51-48.46,13.1-73.11,19.71-60.23,16.16-122.51,32.86-181.91,50.19h0ZM2576.8,1238.56c2.94-1.94,5.8-3.97,8.57-6.1-2.78,2.13-5.63,4.15-8.57,6.1ZM2512.01,1266.84c3.84-1.14,7.62-2.32,11.33-3.55-3.71,1.23-7.49,2.4-11.33,3.55ZM1289.3,1447.75c7.94-.67,15.96-1.36,24.02-2.07-8.06.71-16.07,1.4-24.02,2.07l-24.8,1.99c-37.82,3.03-76.06,6.1-114.39,9.14,38.33-3.04,76.57-6.11,114.39-9.14l24.8-1.99ZM682.05,1458.49c11.48,4.25,23.1,7.73,34.81,10.57-11.71-2.84-23.33-6.32-34.81-10.57-3.56-1.34-7.1-2.72-10.62-4.13,3.52,1.41,7.05,2.79,10.62,4.13ZM728.61,1471.7c-3.92-.81-7.84-1.68-11.74-2.63,3.9.95,7.82,1.82,11.74,2.63ZM2003.83,1262.54c3.21-1.64,6.39-3.3,9.54-4.98-3.15,1.69-6.33,3.35-9.54,4.98ZM1989.22,1269.75c3.29-1.56,6.55-3.15,9.79-4.76-3.23,1.61-6.5,3.2-9.79,4.76ZM1862.4,1317.56c47.27-14.8,88.95-29.82,126.81-47.82-37.87,18-79.53,33.02-126.81,47.82-23.44,7.22-46.87,14.59-70.29,21.94,23.42-7.35,46.85-14.72,70.28-21.94h.01ZM752.24,229.02c-5.77,2.03-11.53,4.13-17.29,6.3,5.75-2.17,11.51-4.27,17.29-6.3ZM1260.72,96.92c-4.31.5-8.61,1.06-12.93,1.66,4.31-.6,8.62-1.15,12.93-1.66ZM2253.23,993.55c4.22-8.57,8.21-17.26,11.9-26.05-3.7,8.79-7.68,17.49-11.9,26.05ZM1313.32,1445.67c8.06-.71,16.18-1.45,24.33-2.22-8.15.77-16.27,1.51-24.33,2.22ZM2271.47,951.54c2.67-7.14,5.13-14.37,7.36-21.65-2.23,7.28-4.69,14.51-7.36,21.65ZM1046.13,1467.01c21.83-1.67,43.73-3.38,65.65-5.1-21.91,1.72-43.82,3.42-65.65,5.1ZM2221.24,638.64c9.4,15.83,18.76,32.37,27.52,49.44-8.76-17.07-18.13-33.61-27.52-49.44ZM2196.87,598.92c-2.82-4.46-5.6-8.83-8.33-13.13,2.73,4.29,5.51,8.66,8.33,13.13ZM2210.69,621.15c2.34,3.81,4.68,7.67,7.03,11.58-2.35-3.91-4.7-7.77-7.03-11.58ZM2180.44,573.15c-2.81-4.38-5.57-8.66-8.29-12.89,2.72,4.21,5.48,8.5,8.29,12.89ZM2049.77,388.87c6.96,7.92,13.94,16.29,20.96,25.16-7.02-8.86-14.01-17.24-20.96-25.16Z"/>
  <g>
    <g>
      <path d="M890.79,1071.39c.41,17.35-18.83,29.98-31.61,37.62-18.75,11.18-37.96,20.39-58.99,24.18-33.83,6.1-72.2-2.64-103.54-16.61-23.9-10.64-46.1-27.07-69.45-38.72-27.3-13.62-75.3-21.72-102.08-2.78-13.17,9.31-6.93,26.9,3.3,35.05,11.52,9.16,25.71,14.08,39.61,19.04,27.51,9.88,59.3,21.89,74.65,48.73,9.43,16.49,10.71,38.75-2.09,53.88-18.72,22.12-50.55,31.29-77.71,38.19-10.61,2.56-21.73,4.46-32.6,5.47-16.5,1.77-33.46,2.42-49.89-.23-40.83-9.26-69.85-35.45-83.32-75.42-4.27-12.62-5.76-25.94-9.33-38.76-7.18-24.72-21.59-44.8-41.4-59.74-10.37-7.83-24.11-13.13-36.97-13.77-11.62-.58-23.38.73-35.31,2.33-13.03,1.74-26.81,4.18-39.56-.68-40.41-17.96-77.22-93.1-61.45-135.54,5.07-12.57,18.87-16.49,31.25-13.99,30.02,6.29,85.83,61.44,111.45,23.53,9.33-13.81,7.75-33.36.45-48.18-7.52-15.29-17.94-32.75-17.17-50.06.77-17.23,5.15-32.6,12.78-48.15,12.36-25.21,37.11-38.27,63.65-42.49,35.5-5.65,77.11,11.29,107.96,28.86,11.66,6.64,22.59,13.83,33.5,21.86,30.93,26.95,40.55,58.09,19.67,94.93-6.33,10.66-3.82,22.94,4.88,31.49,24.47,25.22,63.76,26.44,96.47,27.76,27.12,1.1,54.31-.05,81.53-1.12,38.24-1.34,78.16,9.84,112.03,27.1,24.95,12.72,58.6,34.55,59.28,66.22l.02-.02ZM393.36,967.46c-11.68,9.09-18.78,16.17-26.12,29.32-2.01,5.76-2.33,12.27.11,18.46,2.6,6.6,8.37,12.62,15.61,16.22,7.24,3.6,15.97,4.67,23.42,3.16,8.51-1.73,17.74-8.74,22.65-15.78,7.6-10.88,11.24-18.48,14.07-31.53.58-6.91-.21-14.29-7.57-20.13-13.67-10.84-28.55-10.3-42.16.29h0Z"/>
      <path d="M1248.71,700.75c27.05,26.28,27.32,71.1-.79,96.8-13.93,12.73-34,19.55-52.95,17.73-32.64-4.48-55.84-25.92-86.23-36.29-15.65-5.34-35.56-3.56-45.45,11.15-16.49,27.63,25.44,62.26,30.47,88.43,12.53,59.87-44.67,109.59-97.58,120.23-51.08,10.27-115.08-2.07-157.7-30.2-21.98-14.52-41.51-34.26-49.46-60.72-11.73-48.89,10.15-90.19,27.26-134.29,13.37-34.45,19.08-70.14,14.28-106.51-9.54-72.19-73.22-144.06-149.6-148.88-22.99-.21-45.8,4.36-62.84,20.7-24.62,23.6-16.21,60.75-.18,85.05,22.47,34.06,66.33,52.04,94.68,81.19,36.54,37.57,45.37,98.94-18.48,114.26-51.75,12.42-114.41,5.49-161.11-17.87-26.66-13.34-50.23-32.39-68.28-57.01-44.06-63.32-56.79-141.42-19.18-211.19,10.81-18.64,23.15-35.27,37.99-50.39,70.2-71.51,162.13-94.7,259.23-60.56,55,21.78,101.39,55.1,142.97,96.23,32.58,32.22,55.36,73.45,93.43,99.06,78,52.47,197.87,13.66,269.52,83.09h0ZM932.68,772.78c-9.61,8.38-16.41,17.58-20.45,29.55-7.41,21.94,7.02,48.64,32.05,54.3,21.98,4.97,35.67-12.23,36.92-32.32,1.13-18.32-3.92-33.51-14.4-47.55-7.38-9.88-25.47-11.51-34.11-3.98h-.01Z"/>
      <path d="M1169.87,253.13c8.9,3.77,35.71,22.37,13.84,32.45-15.03,6.93-35.68,7.47-52.46,6.44-14.85-.92-46.89-6.27-57.31,9.01-2.03,4.95,1.59,10.97,8.59,16.51,16.21,11.86,56,35.04,73.97,40.32,40.19,10.31,81.07,13.73,122.25,17.56,54,5.84,106.13,20.21,152.19,47.33,35.59,20.97,58.04,50.51,54.86,94.11-2.12,19.1-6.74,36.01-16.41,52.03-22.41,37.08-68.98,55.67-110.15,65.9-46.45,11.54-95.47,14.22-142.47,7.42-58.05-8.4-113.13-33.11-159.77-70.42-18.22-15.15-34.85-31.34-50.5-49.15-14.87-18.54-34.69-47.75-17.85-71.24,10.42-14.53,23.75-22.51,40.56-28.09,13.69-3.15,27.71-5.33,41.36-8.23,11.41-2.42,60.11-15.45,35.73-34.3-21.41-16.56-54.6-19.42-80.52-26.44-35.69-10.45-132.81-44.72-154.57-82.25-14.55-25.08,42.63-31.37,54.06-32.92,50.56-6.9,104.1-6.95,155.62-2.22,29.84,2.88,62.36,4.89,89,16.18h0ZM1291.65,483.49c-10.22-4.5-24.25-5.02-35.28-1.7-12.07,3.63-16.13,15.12-29.35,18.99-11.76.62-23.68.12-35.26,2.64-19.82,4.3-23.7,21.72-3.13,29.96,1.09.51,2.21,1.01,3.32,1.48,19.36,7.81,47.92,8.45,61.73-9.85,9.36-12.41,34.56-7.35,47.02-13.88,17.07-8.96,1.11-23.16-9.05-27.63h0Z"/>
      <path d="M1373.33,182.81c10.61,6.31,21.53,12.64,32.72,17.53,33.12,14.45,70.93,21.89,107.24,26.73,42.25,5.65,85.52,9.2,127.74,17.6,58.08,13.58,150.16,48.27,102.37,122.63-28.9,44-87.25,55.75-135.27,55.05-42.19-.62-101.64-14.41-127.51-48.24-16.69-21.83-6.37-54.28-23.44-76.61-13.86-16.77-34.23-24.62-53.89-29.6-28.24-7.18-59.59-9.46-89.29-14.87-30.98-6.21-61.94-13.47-91.8-23.87-15.43-5.37-49.2-14.08-53.59-33.11,1.31-17.78,29.97-24.59,42.87-28.32,31.6-9.16,69.19-8.79,101.85-4.06,21.2,3.07,41.4,8.13,60,19.18v-.03Z"/>
    </g>
    <g>
      <path d="M925.98,1374.13c-28.8,24.81-72.69,45.82-109.06,43.01-8.37-.65-23.59-1.87-25.04-14,.86-18.52,23.33-31.26,31.8-46.1,6.73-11.78-10.09-14.58-17.52-13.74-33.76,2.11-61.72,25-94.41,31.31-45.8,8.98-107.47-2.21-136.96-41.83-16.58-22.27-7-45.3,14.02-56.7,17.29-9.37,40.55-11.32,60.77-13.99,47.6-5.33,96.27-5.48,143.17-12.76,37.09-5.75,72.85-17.2,105.56-35.47,26.79-14.98,51.41-36.07,70.97-60.21,12.58-15.52,33.47-42.01,26.16-63.71-5.32-10-19.12-4.76-26.02-2.14-24.17,9.15-47.95,30.47-67.98,48.18-20.32,17.97-36.95,41.24-57.77,59.16-25.95,22.34-78.04,46.37-111.74,29.39-20.2-10.17-7.16-29.4,4.28-37.85,14.24-10.49,32.89-18.23,49.6-26.65,60.17-30.18,115.21-68.43,169.38-108.12,13.08-9.53,26.21-19.08,39.58-28.06,16.33-10.98,37.49-27.79,57.88-29.92,24.58-2.57,26.45,18.8,27.08,38.82,1.19,37.6-20.9,78.29-38.64,109.61-18.68,32.96-46.1,61.33-65.65,93.76-13.25,21.98-13.14,42.52-12.83,67.27.38,30.61-14.74,50.53-36.66,70.73h0ZM808.84,1289.33c-11.22-1.3-22.65-.9-33.62.22-14.61,1.5-51.95,8.04-53.74,21.39-1.51,11.22,28.38,10.24,38.28,8.67,16.76-2.66,34.56-7.2,49.04-16.4,10.74-6.82,8.21-12.94.05-13.88h0Z"/>
      <path d="M1091.37,1102.8c1.21-7.8,2.98-15.83,5.28-24.11,5.82-20.93,15.7-40.07,26.8-58.69,13.97-22.21,40.6-59.19,71.6-53.87,13.04,3.49,22.09,15.29,27.01,27.23,6.05,14.69,9.12,30.34,12.45,45.84,8.15,36.92,18.14,73.17,28.49,109.51,2.18,9.17,7.64,21.83,18.85,19.92,11.45-1.96,21.27-12.07,27.39-21.98,17.47-33.67,13.46-68.61-1.78-101.82-11.72-25.56-27.12-50.28-34.42-77.25-7.48-27.62-7.83-61.82,2.01-89.75,11.96-34.55,58.37-129.98,109.33-93.93,27.02,18.51,40.68,58.52,41.21,89.76.81,48.41-20.12,94.76-26.88,141.77-4.51,31.33-2.31,64-4.08,95.34-2.64,46.89-15.25,93.07-31.18,137.77-19.26,54.02-59.68,110.83-110.06,137.63-17.59,9.35-75.49,32.6-84.65.39-6.74-23.7,12.92-54.91,23.08-76.37,13.14-27.73,25.42-56.54,32.46-85.49,4.99-20.54,6.61-44.95-5.61-64.47-5.35-7.61-19.49-15.23-23.01-2.06-6.08,22.69-11.73,46.26-13.55,70.04-2.32,37.35-5.34,67.28-28.25,97.34-19.78,25.95-51.37,46.39-83.16,55.45-19.41,5.53-63.29,20.12-80.16,1.21-5.65-8.93.38-20.32,3.82-28.54,19.57-33.54,50.01-61.07,69.76-92.82,15.19-24.4,23.37-52.09,24.31-81.91.8-25.47-.91-50.8,2.96-76.14h0Z"/>
      <path d="M1574.16,875c-9.17-8.89-24.86-18.7-35.93-3.6-19.47,26.57-11.94,74.26-6.77,104.32,5.93,34.49,14.81,68.59,18.23,103.59,2.15,21.93,7.55,84.08,44.67,74.23,34.46-9.15,57.24-58.99,77.8-84.99,22.65-25.98,56.23-51.6,87.68-21.75,30.67,28.04,15.58,81.65,1.57,113.92-23.02,53.02-62.72,102.51-108.31,137.85-32.04,24.29-74.97,54.68-114.72,60.75-25.93,3.96-24.1-32.52-27.27-47.35-4.31-20.18-21.61-27.96-38.36-40.61-24.5-18.5-12.74-66.81-8.79-93.34,1.51-9.71,2.95-19.45,4.23-29.19.96-7.31,1.79-14.73,2.44-22.22,3.94-52.77-3.32-104.66-8.11-157.14-4.8-52.57-4.34-105.51-7-157.68-2.27-44.54-12.02-183.46,63.84-178.54,45.22,2.07,84.66,42.06,112,72.81,36.31,40.88,64.22,89.74,82.66,141.88,14.75,41.67,21.58,97.51-3.19,137.54-11.54,15.4-28.86,31.42-50.09,27.17-20.17-4.05-33.51-28.32-41.49-45-6.97-15.47-12.91-31.51-19.27-47.01-6.6-16.09-13.97-34.13-25.81-45.62h.01Z"/>
      <path d="M1898.02,1004.15c21.25-30.42,23.92-73.5,13.69-107.42-13.18-43.69-40.36-82.46-73.32-114.99-29.74-29.33-60.74-57.39-86.06-90.39-32.79-42.76-61.41-93.67-83.48-142.73-10.48-23.31-31.64-65.23-14.34-88.36,21.73-29.03,79.81.37,103.5,14,18.53,11.65,35.93,26.9,56.28,35.38,31.35,7.16,29.73-24.47,23.69-46.7-5.42-19.93-16.45-39.54-20.29-60.16-2.44-13.1,5.34-24.32,17.54-28.51,55.45-19.09,121.05,7.46,162.17,43.44,33.48,29.29,62.6,71,76.12,114.43,6.26,24,10.99,54.26-8.05,74.23-15.71,16.46-40.23,15.79-59.95,7.71-23.02-9.32-50.65-23.58-76.36-19.68-13.85,2.1-26.55,9.73-32.39,22.83-9.04,20.26-4.42,43.97.68,64.59,11.51,39.97,37.75,86.46,74.06,108.87,43.09,20.85,56.64-18.36,66.47-54.11,3.51-12.78,9.77-29.3,22.16-35.89,17.7-9.42,34.39,5.61,46.94,16.82,25.53,26.29,40.87,68.29,42.01,103.83.7,21.91-2.32,49.47-20.28,63.25-20.15,15.45-42.44,16.44-65.87,7.09-24.06-9.6-50.47-22.82-71.26-5.72-19.88,16.34-25.84,51.89-31.83,78.4-8.28,40.12-21.37,91.68-10.69,131.88,8.62,32.47,43.47,10.66,58.42-1.09,37.61-29.56,67.52-72.25,96.5-111.38,7.96-10.75,68.71-89.58,78.65-39.74,6.25,28.42-10.77,59.7-23.62,83.38-20.43,37.67-47.25,72.91-76.37,104.21-27.07,29.09-65.91,74.98-102.05,84.69-11.46,3.08-8.69-24.81-14.04-30.86-9.51-10.79-32.76-2.22-45.66,2.97-28.87,11.63-56.08,32.87-82.72,50.68-22.18,14.82-44.97,30.34-68.8,41.43-9.42,4.38-30.35,15.68-41.29,8.37-12.81-8.55-2.01-30.93,1.83-41.07,18.94-49.92,50-98.38,81.15-142.99,15.91-22.22,32.62-43.83,52.2-62.85,12.18-11.83,25.13-23.64,34.69-37.86h-.03Z"/>
    </g>
  </g>
</svg>