<svg width="15" height="29" viewBox="0 0 15 29" fill="none" xmlns="http://www.w3.org/2000/svg">
<mask id="mask0_4697_166" style="mask-type:alpha" maskUnits="userSpaceOnUse" x="0" y="0" width="15" height="29">
<path d="M2.52952 9.66401C2.69212 8.85547 3.48207 8.33158 4.29417 8.49311C5.10644 8.65487 5.63327 9.44116 5.47092 10.2499C5.02489 12.4705 4.19251 15.8449 3.30589 18.7011L2.92307 19.8886C2.66099 20.671 1.81143 21.0938 1.02561 20.833C0.240053 20.5719 -0.18454 19.7257 0.0773701 18.9433L0.442604 17.8076C1.29221 15.069 2.10056 11.7996 2.52952 9.66401ZM10.7063 8.49311C11.5184 8.33158 12.3083 8.85547 12.4709 9.66401C12.8999 11.7996 13.7082 15.069 14.5578 17.8076L14.9231 18.9433C15.185 19.7257 14.7604 20.5719 13.9748 20.833C13.189 21.0938 12.3395 20.671 12.0774 19.8886L11.6946 18.7011C10.8079 15.8449 9.97556 12.4705 9.52952 10.2499C9.36717 9.44116 9.894 8.65487 10.7063 8.49311Z" fill="#B2EE41"/>
<path d="M4.10645 27.3813V18.9178C4.10645 18.0242 4.83398 17.2998 5.73145 17.2998C6.62891 17.2998 7.35645 18.0242 7.35645 18.9178V27.3813C7.35645 28.275 6.62891 28.9994 5.73145 28.9994C4.83398 28.9994 4.10645 28.275 4.10645 27.3813Z" fill="#B2EE41"/>
<path d="M7.60645 27.3813V18.9178C7.60645 18.0242 8.33398 17.2998 9.23145 17.2998C10.1289 17.2998 10.8564 18.0242 10.8564 18.9178V27.3813C10.8564 28.275 10.1289 28.9994 9.23145 28.9994C8.33398 28.9994 7.60645 28.275 7.60645 27.3813Z" fill="#B2EE41"/>
<path d="M8.41823 7.97363C9.26779 8.00133 9.91978 8.06502 10.3987 8.13281C10.7178 8.17801 10.9613 8.22559 11.135 8.26465C11.2217 8.28414 11.2918 8.30105 11.345 8.31543C11.3713 8.32255 11.3939 8.32953 11.4124 8.33496C11.4215 8.33764 11.4305 8.34055 11.4378 8.34277C11.4411 8.34378 11.4446 8.3448 11.4475 8.3457C11.4489 8.34612 11.451 8.34631 11.4524 8.34668L11.4544 8.34766H11.4553C11.455 8.34775 11.4541 8.34822 11.4534 8.35059H11.4553L11.4563 8.34863C11.4685 8.35252 11.4804 8.35813 11.4925 8.3623C11.5039 8.36628 11.5153 8.37075 11.5266 8.375C11.5694 8.39099 11.6112 8.4083 11.6516 8.42773C11.6588 8.43119 11.666 8.4349 11.6731 8.43848C11.7149 8.45938 11.7551 8.48247 11.7942 8.50684C11.8034 8.51255 11.8125 8.5185 11.8216 8.52441C11.8555 8.54663 11.8884 8.57004 11.9202 8.59473C11.9328 8.60452 11.9459 8.61381 11.9583 8.62402C12.1294 8.76609 12.2646 8.94353 12.3577 9.1416C12.3622 9.15124 12.3661 9.16118 12.3704 9.1709C12.4813 9.42043 12.5245 9.69939 12.4856 9.98145C12.4848 9.98765 12.4836 9.9938 12.4827 10C12.4754 10.0486 12.4657 10.097 12.4534 10.1455C12.4524 10.1496 12.4525 10.1541 12.4514 10.1582L10.9514 15.8936L10.9143 16.0146C10.896 16.0664 10.8743 16.1163 10.8509 16.165V18.918H4.10085V16.0508C4.09621 16.0387 4.09054 16.0269 4.0862 16.0146L4.04909 15.8936L2.54909 10.1582C2.54556 10.1447 2.54345 10.1308 2.5403 10.1172C2.53333 10.0873 2.5278 10.0573 2.52273 10.0273C2.51939 10.0075 2.51646 9.98766 2.51394 9.96777C2.50882 9.92796 2.50507 9.88828 2.50319 9.84863C2.50257 9.83527 2.50151 9.82195 2.50124 9.80859C2.5004 9.76737 2.50162 9.72634 2.50417 9.68555C2.51001 9.59172 2.52593 9.49913 2.54909 9.4082C2.55452 9.38699 2.55935 9.36564 2.56569 9.34473C2.57393 9.31744 2.58324 9.29049 2.59304 9.26367C2.60219 9.23868 2.61188 9.2139 2.62233 9.18945C2.63233 9.16603 2.64335 9.14306 2.65456 9.12012C2.66614 9.09645 2.67789 9.07284 2.69069 9.0498C2.70341 9.02692 2.71579 9.00372 2.72976 8.98145C2.74426 8.95828 2.76087 8.93643 2.77663 8.91406C2.78886 8.89674 2.79975 8.8782 2.81276 8.86133C2.81642 8.8566 2.82077 8.85233 2.82448 8.84766C2.88741 8.76793 2.9586 8.69403 3.03737 8.62793C3.05285 8.61499 3.06927 8.6031 3.08523 8.59082C3.11506 8.56779 3.14623 8.54626 3.178 8.52539C3.18999 8.51753 3.20193 8.50946 3.21413 8.50195C3.24696 8.48173 3.281 8.46312 3.31569 8.44531C3.32992 8.43801 3.34421 8.43067 3.35866 8.42383C3.39388 8.40716 3.4301 8.39201 3.46706 8.37793C3.48205 8.37223 3.49681 8.36558 3.51198 8.36035C3.5233 8.35645 3.53469 8.35229 3.54616 8.34863V8.35059H3.54812C3.54746 8.34834 3.54713 8.34778 3.54714 8.34766H3.54812L3.55007 8.34668C3.55137 8.34633 3.55352 8.34609 3.55495 8.3457C3.55781 8.34481 3.56145 8.34377 3.56472 8.34277C3.57191 8.34057 3.58103 8.33764 3.59011 8.33496C3.60852 8.32954 3.63124 8.32253 3.65749 8.31543C3.71067 8.30106 3.78087 8.28413 3.86745 8.26465C4.04114 8.22559 4.28468 8.17801 4.60378 8.13281C5.2424 8.04241 6.18838 7.959 7.50124 7.95898L8.41823 7.97363Z" fill="#B2EE41"/>
<ellipse cx="7.49949" cy="3.76" rx="3.75926" ry="3.76" fill="#B2EE41"/>
</mask>
<g mask="url(#mask0_4697_166)">
<path d="M2.52952 9.66401C2.69212 8.85547 3.48207 8.33158 4.29417 8.49311C5.10644 8.65487 5.63327 9.44116 5.47092 10.2499C5.02489 12.4705 4.19251 15.8449 3.30589 18.7011L2.92307 19.8886C2.66099 20.671 1.81143 21.0938 1.02561 20.833C0.240053 20.5719 -0.18454 19.7257 0.0773701 18.9433L0.442604 17.8076C1.29221 15.069 2.10056 11.7996 2.52952 9.66401ZM10.7063 8.49311C11.5184 8.33158 12.3083 8.85547 12.4709 9.66401C12.8999 11.7996 13.7082 15.069 14.5578 17.8076L14.9231 18.9433C15.185 19.7257 14.7604 20.5719 13.9748 20.833C13.189 21.0938 12.3395 20.671 12.0774 19.8886L11.6946 18.7011C10.8079 15.8449 9.97556 12.4705 9.52952 10.2499C9.36717 9.44116 9.894 8.65487 10.7063 8.49311Z" fill="#B2EE41"/>
<g filter="url(#filter0_f_4697_166)">
<path d="M9.5 16.9268L12 23.3989" stroke="black" stroke-opacity="0.56"/>
</g>
<g filter="url(#filter1_f_4697_166)">
<path d="M6 16.9268L3.5 23.3989" stroke="black" stroke-opacity="0.56"/>
</g>
<path d="M4.10547 27.3813V18.9178C4.10547 18.0242 4.83301 17.2998 5.73047 17.2998C6.62793 17.2998 7.35547 18.0242 7.35547 18.9178V27.3813C7.35547 28.275 6.62793 28.9994 5.73047 28.9994C4.83301 28.9994 4.10547 28.275 4.10547 27.3813Z" fill="#B2EE41"/>
<path d="M7.60547 27.3813V18.9178C7.60547 18.0242 8.33301 17.2998 9.23047 17.2998C10.1279 17.2998 10.8555 18.0242 10.8555 18.9178V27.3813C10.8555 28.275 10.1279 28.9994 9.23047 28.9994C8.33301 28.9994 7.60547 28.275 7.60547 27.3813Z" fill="#B2EE41"/>
<path d="M8.41823 7.97363C9.26788 8.00133 9.91977 8.06501 10.3987 8.13281C10.7179 8.17803 10.9613 8.22558 11.135 8.26465C11.2217 8.28415 11.2918 8.30104 11.345 8.31543C11.3714 8.32256 11.3939 8.32953 11.4124 8.33496C11.4216 8.33766 11.4305 8.34055 11.4378 8.34277C11.4411 8.3438 11.4446 8.34479 11.4475 8.3457C11.449 8.34612 11.451 8.34627 11.4524 8.34668L11.4544 8.34766H11.4553C11.4551 8.34781 11.454 8.34836 11.4534 8.35059L11.4553 8.35156L11.4563 8.34863C11.4699 8.35295 11.483 8.35861 11.4964 8.36328C11.5039 8.36593 11.5113 8.3693 11.5188 8.37207C11.5636 8.38855 11.6074 8.40651 11.6497 8.42676C11.6588 8.43115 11.668 8.43585 11.677 8.44043C11.7157 8.45993 11.7529 8.48142 11.7893 8.50391C11.8007 8.51097 11.8123 8.51802 11.8235 8.52539C11.8608 8.54983 11.8963 8.57612 11.9309 8.60352C11.938 8.60911 11.9454 8.61439 11.9524 8.62012C12.0837 8.72807 12.1946 8.85615 12.2815 8.99902C12.2854 9.00536 12.2885 9.01217 12.2923 9.01855C12.3141 9.05577 12.3342 9.09387 12.3528 9.13281C12.3596 9.14703 12.366 9.16138 12.3723 9.17578C12.3907 9.21742 12.4076 9.25954 12.4221 9.30273C12.4242 9.30888 12.426 9.31512 12.428 9.32129C12.4953 9.53051 12.5168 9.75495 12.4856 9.98145C12.4848 9.98765 12.4836 9.9938 12.4827 10C12.4754 10.0486 12.4657 10.097 12.4534 10.1455C12.4524 10.1496 12.4525 10.1541 12.4514 10.1582L10.9514 15.8936L10.9143 16.0146C10.896 16.0664 10.8743 16.1163 10.8509 16.165V18.918H4.10085V16.0508C4.09621 16.0387 4.09054 16.0269 4.0862 16.0146L4.04909 15.8936L2.54909 10.1582C2.5453 10.1437 2.54268 10.1289 2.53933 10.1143C2.53393 10.0909 2.5299 10.0673 2.52565 10.0439C2.52045 10.015 2.51546 9.9861 2.51198 9.95703C2.50796 9.92378 2.50594 9.89055 2.50417 9.85742C2.50331 9.84112 2.50156 9.82489 2.50124 9.80859C2.5004 9.76736 2.50162 9.72635 2.50417 9.68555C2.50951 9.59984 2.52245 9.51501 2.54226 9.43164C2.55008 9.39888 2.55767 9.36606 2.56765 9.33398C2.57511 9.30991 2.58436 9.2864 2.59304 9.2627C2.601 9.24101 2.60949 9.21952 2.61843 9.19824C2.62946 9.17194 2.64103 9.14583 2.65358 9.12012C2.66637 9.09395 2.68032 9.06835 2.6946 9.04297C2.70581 9.02306 2.71663 9.00284 2.72878 8.9834C2.74364 8.9596 2.76045 8.93702 2.77663 8.91406C2.78883 8.89678 2.79978 8.87816 2.81276 8.86133C2.81642 8.8566 2.82077 8.85233 2.82448 8.84766C2.8873 8.76809 2.95877 8.6949 3.03737 8.62891C3.05391 8.61507 3.07108 8.60195 3.08815 8.58887C3.11578 8.56765 3.14385 8.54671 3.17312 8.52734C3.18712 8.51809 3.20179 8.50974 3.21608 8.50098C3.24932 8.48057 3.28348 8.46129 3.31862 8.44336C3.33092 8.43709 3.34327 8.43074 3.35573 8.4248C3.39183 8.40763 3.42913 8.39237 3.46706 8.37793C3.48234 8.37212 3.49749 8.36567 3.51296 8.36035C3.52398 8.35656 3.535 8.35219 3.54616 8.34863V8.35059H3.54812C3.54736 8.34799 3.54714 8.3477 3.54714 8.34766H3.54812L3.55007 8.34668C3.55143 8.34632 3.55352 8.34613 3.55495 8.3457C3.55786 8.3448 3.56141 8.34379 3.56472 8.34277C3.57195 8.34055 3.58099 8.33764 3.59011 8.33496C3.60856 8.32953 3.63118 8.32255 3.65749 8.31543C3.71071 8.30105 3.7808 8.28414 3.86745 8.26465C4.04117 8.22559 4.28461 8.17801 4.60378 8.13281C5.24243 8.04241 6.18832 7.95899 7.50124 7.95898L8.41823 7.97363Z" fill="#B2EE41"/>
<g opacity="0.86" filter="url(#filter2_f_4697_166)">
<path d="M7.5 30.8665V18.918" stroke="black" stroke-opacity="0.19" stroke-linecap="round" stroke-linejoin="round"/>
</g>
<g opacity="0.86" filter="url(#filter3_f_4697_166)">
<path d="M6.5 29.8713L3 27.8799" stroke="black" stroke-opacity="0.38" stroke-width="3"/>
</g>
<g opacity="0.86" filter="url(#filter4_f_4697_166)">
<path d="M8.5 29.8713L12 27.8799" stroke="black" stroke-opacity="0.38" stroke-width="3"/>
</g>
<g filter="url(#filter5_d_4697_166)">
<ellipse cx="7.25879" cy="4.49884" rx="3" ry="2.98712" fill="#B2EE41"/>
</g>
<g filter="url(#filter6_i_4697_166)">
<ellipse cx="7.49949" cy="3.76" rx="3.75926" ry="3.76" fill="#B2EE41"/>
</g>
</g>
<defs>
<filter id="filter0_f_4697_166" x="5.0332" y="12.7471" width="11.4336" height="14.832" filterUnits="userSpaceOnUse" color-interpolation-filters="sRGB">
<feFlood flood-opacity="0" result="BackgroundImageFix"/>
<feBlend mode="normal" in="SourceGraphic" in2="BackgroundImageFix" result="shape"/>
<feGaussianBlur stdDeviation="2" result="effect1_foregroundBlur_4697_166"/>
</filter>
<filter id="filter1_f_4697_166" x="-0.966797" y="12.7471" width="11.4336" height="14.832" filterUnits="userSpaceOnUse" color-interpolation-filters="sRGB">
<feFlood flood-opacity="0" result="BackgroundImageFix"/>
<feBlend mode="normal" in="SourceGraphic" in2="BackgroundImageFix" result="shape"/>
<feGaussianBlur stdDeviation="2" result="effect1_foregroundBlur_4697_166"/>
</filter>
<filter id="filter2_f_4697_166" x="5.5" y="16.918" width="4" height="15.9482" filterUnits="userSpaceOnUse" color-interpolation-filters="sRGB">
<feFlood flood-opacity="0" result="BackgroundImageFix"/>
<feBlend mode="normal" in="SourceGraphic" in2="BackgroundImageFix" result="shape"/>
<feGaussianBlur stdDeviation="0.75" result="effect1_foregroundBlur_4697_166"/>
</filter>
<filter id="filter3_f_4697_166" x="-1.74219" y="22.5762" width="12.9844" height="12.5986" filterUnits="userSpaceOnUse" color-interpolation-filters="sRGB">
<feFlood flood-opacity="0" result="BackgroundImageFix"/>
<feBlend mode="normal" in="SourceGraphic" in2="BackgroundImageFix" result="shape"/>
<feGaussianBlur stdDeviation="2" result="effect1_foregroundBlur_4697_166"/>
</filter>
<filter id="filter4_f_4697_166" x="3.75781" y="22.5762" width="12.9844" height="12.5986" filterUnits="userSpaceOnUse" color-interpolation-filters="sRGB">
<feFlood flood-opacity="0" result="BackgroundImageFix"/>
<feBlend mode="normal" in="SourceGraphic" in2="BackgroundImageFix" result="shape"/>
<feGaussianBlur stdDeviation="2" result="effect1_foregroundBlur_4697_166"/>
</filter>
<filter id="filter5_d_4697_166" x="1.35879" y="-0.388281" width="11.8" height="11.7746" filterUnits="userSpaceOnUse" color-interpolation-filters="sRGB">
<feFlood flood-opacity="0" result="BackgroundImageFix"/>
<feColorMatrix in="SourceAlpha" type="matrix" values="0 0 0 0 0 0 0 0 0 0 0 0 0 0 0 0 0 0 127 0" result="hardAlpha"/>
<feOffset dy="1"/>
<feGaussianBlur stdDeviation="1.45"/>
<feComposite in2="hardAlpha" operator="out"/>
<feColorMatrix type="matrix" values="0 0 0 0 0 0 0 0 0 0 0 0 0 0 0 0 0 0 0.23 0"/>
<feBlend mode="normal" in2="BackgroundImageFix" result="effect1_dropShadow_4697_166"/>
<feBlend mode="normal" in="SourceGraphic" in2="effect1_dropShadow_4697_166" result="shape"/>
</filter>
<filter id="filter6_i_4697_166" x="3.74023" y="-1" width="7.51855" height="8.51953" filterUnits="userSpaceOnUse" color-interpolation-filters="sRGB">
<feFlood flood-opacity="0" result="BackgroundImageFix"/>
<feBlend mode="normal" in="SourceGraphic" in2="BackgroundImageFix" result="shape"/>
<feColorMatrix in="SourceAlpha" type="matrix" values="0 0 0 0 0 0 0 0 0 0 0 0 0 0 0 0 0 0 127 0" result="hardAlpha"/>
<feOffset dy="-1"/>
<feGaussianBlur stdDeviation="1"/>
<feComposite in2="hardAlpha" operator="arithmetic" k2="-1" k3="1"/>
<feColorMatrix type="matrix" values="0 0 0 0 0 0 0 0 0 0 0 0 0 0 0 0 0 0 0.13 0"/>
<feBlend mode="normal" in2="shape" result="effect1_innerShadow_4697_166"/>
</filter>
</defs>
</svg>
