<?xml version="1.0" encoding="utf-8"?>
<svg width="24" height="30" viewBox="0 0 33.814 30" fill="none" xmlns="http://www.w3.org/2000/svg">
  <g transform="matrix(1, 0, 0, 1, 0.406816, -22.222221)">
    <g filter="url(#filter0_i_4697_341)" transform="matrix(1, 0, 0, 1, 0, 22.222221)">
      <path d="M17.4181 8.97363C18.2675 9.00132 18.9197 9.06504 19.3986 9.13281C19.7175 9.17798 19.9612 9.2256 20.1349 9.26465C20.2214 9.2841 20.2917 9.30107 20.3449 9.31543C20.371 9.32251 20.3939 9.32955 20.4122 9.33496C20.4212 9.33761 20.4305 9.34057 20.4376 9.34277C20.4408 9.34375 20.4446 9.34483 20.4474 9.3457L20.4523 9.34668L20.4542 9.34766C20.4542 9.34766 20.4539 9.34827 20.4533 9.35059H20.4552L20.4562 9.34863C20.4686 9.35259 20.4811 9.35806 20.4933 9.3623C20.5031 9.3657 20.5129 9.36945 20.5226 9.37305C20.5682 9.38992 20.6125 9.40891 20.6554 9.42969C20.6602 9.43201 20.6653 9.43415 20.6701 9.43652C20.7119 9.45731 20.752 9.48063 20.7912 9.50488C20.8022 9.51171 20.8135 9.51828 20.8244 9.52539C20.8616 9.54982 20.8972 9.57613 20.9318 9.60352C20.937 9.60767 20.9432 9.61101 20.9484 9.61523L20.9777 9.63867C21.0538 9.70397 21.1218 9.77729 21.1828 9.85547C21.1844 9.85759 21.1869 9.85921 21.1886 9.86133C21.1948 9.86941 21.2001 9.87853 21.2062 9.88672C21.2314 9.9209 21.2552 9.95607 21.2775 9.99219C21.2846 10.0037 21.2912 10.0156 21.298 10.0273C21.3193 10.0642 21.3384 10.1021 21.3566 10.1406C21.3615 10.151 21.3666 10.1614 21.3712 10.1719C21.3891 10.2122 21.4057 10.2531 21.4201 10.2949C21.4233 10.3044 21.4268 10.3137 21.4298 10.3232C21.4788 10.4763 21.5019 10.6376 21.4992 10.8018C21.9346 12.9384 22.7262 16.1273 23.5578 18.8076L23.923 19.9434C24.1849 20.7257 23.7603 21.5719 22.9747 21.833C22.189 22.0936 21.3393 21.6709 21.0773 20.8887L20.6945 19.7012C20.4729 18.9872 20.2547 18.2409 20.0451 17.4883L19.9152 17.0146C19.8969 17.0664 19.8752 17.1163 19.8517 17.165V19.8262C19.8534 19.8566 19.8566 19.8871 19.8566 19.918V28.3818C19.8565 29.2752 19.1288 29.9998 18.2316 30C17.3342 30 16.6067 29.2753 16.6066 28.3818V19.918H16.3566V28.3818C16.3565 29.2752 15.6288 29.9998 14.7316 30C13.8342 30 13.1067 29.2753 13.1066 28.3818V19.918H13.1017V17.0508C13.0971 17.0387 13.0914 17.0269 13.0871 17.0146L13.0851 17.0098C12.8358 17.9232 12.5743 18.8363 12.3058 19.7012L11.923 20.8887C11.6608 21.6709 10.8113 22.0938 10.0255 21.833C9.24024 21.5718 8.81553 20.7256 9.07729 19.9434L9.44252 18.8076C10.2744 16.1262 11.0657 12.9355 11.5011 10.7988V10.7881C11.5004 10.6879 11.5096 10.5888 11.5285 10.4922C11.5329 10.4696 11.5386 10.4472 11.5441 10.4248C11.5515 10.3943 11.5592 10.3639 11.5685 10.334C11.5742 10.3155 11.5816 10.2975 11.588 10.2793C11.5991 10.2481 11.6101 10.2169 11.6232 10.1865C11.6324 10.1651 11.6423 10.144 11.6525 10.123C11.6657 10.0958 11.6806 10.0694 11.6954 10.043C11.7067 10.0231 11.7175 10.0028 11.7296 9.9834C11.7445 9.95961 11.7613 9.93701 11.7775 9.91406C11.7896 9.89687 11.8007 9.87807 11.8136 9.86133C11.8173 9.85662 11.8216 9.85232 11.8253 9.84766C11.8881 9.76813 11.9587 9.69389 12.0372 9.62793C12.0527 9.615 12.0692 9.60309 12.0851 9.59082C12.1149 9.5678 12.1461 9.54625 12.1779 9.52539C12.1898 9.51754 12.2018 9.50945 12.214 9.50195C12.2468 9.48174 12.2809 9.46311 12.3156 9.44531C12.3295 9.43816 12.3434 9.43055 12.3576 9.42383C12.3952 9.40597 12.4341 9.38989 12.4738 9.375C12.4854 9.37065 12.4972 9.36637 12.5089 9.3623C12.5213 9.35801 12.5335 9.35264 12.546 9.34863V9.35059H12.548C12.5474 9.34846 12.547 9.34766 12.547 9.34766L12.5499 9.34668L12.5548 9.3457C12.5576 9.34484 12.5614 9.34374 12.5646 9.34277C12.5717 9.34059 12.581 9.33761 12.59 9.33496C12.6083 9.32957 12.6313 9.3225 12.6574 9.31543C12.7105 9.30108 12.7809 9.28409 12.8673 9.26465C13.041 9.22561 13.2847 9.17799 13.6037 9.13281C14.2422 9.04242 15.1885 8.95901 16.5011 8.95898L17.4181 8.97363Z" fill="#222222"/>
      <path d="M16.5001 1C18.5761 1.00018 20.2588 2.6834 20.2589 4.75977C20.2589 6.83624 18.5762 8.51935 16.5001 8.51953C14.424 8.51953 12.7404 6.83636 12.7404 4.75977C12.7405 2.68328 14.424 1 16.5001 1Z" fill="#222222"/>
    </g>
    <g filter="url(#filter1_d_4697_341)" transform="matrix(1, 0, 0, 1, 0, 21.787989)">
      <mask id="mask0_4697_341" style="mask-type:alpha" maskUnits="userSpaceOnUse" x="1" y="1" width="16" height="27">
        <path d="M8.51852 4.75926C8.51852 6.83544 6.83544 8.51852 4.75926 8.51852C2.68308 8.51852 1 6.83544 1 4.75926C1 2.68308 2.68308 1 4.75926 1C6.83544 1 8.51852 2.68308 8.51852 4.75926Z" fill="#B2EE41"/>
        <path d="M9.72511 16.3027C10.6042 16.0829 11.4945 16.5698 11.7954 17.4043L11.8472 17.5752L12.0269 18.2578C12.2063 18.899 12.3976 19.4337 12.6939 19.9892C13.0402 20.6386 13.5657 21.3809 14.4741 22.3388L14.8872 22.7627L15.0073 22.8955C15.568 23.5828 15.5279 24.5965 14.8872 25.2373C14.2465 25.878 13.2328 25.918 12.5454 25.3574L12.4126 25.2373L11.9341 24.747C10.8668 23.6216 10.1346 22.627 9.60597 21.6357C9.15227 20.785 8.87472 19.9837 8.65577 19.2011L8.45265 18.4248L8.41749 18.249C8.29023 17.3712 8.84622 16.5227 9.72511 16.3027Z" fill="#B2EE41"/>
        <path d="M6.1575 16.7843C7.04594 16.6068 7.91133 17.1357 8.17215 17.9835L8.2161 18.1573L8.39969 19.0479C8.76893 20.7868 9.1644 22.2869 9.79129 23.9835L10.1253 24.8497L10.1829 25.0196C10.4274 25.8721 9.99176 26.7884 9.15067 27.1251C8.30935 27.4616 7.36139 27.0987 6.95047 26.3126L6.87528 26.1505L6.50418 25.1846C5.80686 23.2953 5.3703 21.6313 4.97782 19.7843L4.78446 18.8428L4.75809 18.6661C4.67288 17.7832 5.26899 16.962 6.1575 16.7843Z" fill="#B2EE41"/>
        <path d="M5.16343 7.78948C6.45341 7.49186 7.99826 7.50327 9.96519 7.95061L10.3324 8.0385C10.3419 8.04066 10.3513 8.04299 10.3607 8.04534L10.3646 8.04631L10.3734 8.04826C10.416 8.05923 10.4579 8.07265 10.4994 8.08733L10.5111 8.09123C10.5247 8.09613 10.5378 8.10257 10.5511 8.10784C10.5727 8.11638 10.5944 8.12465 10.6156 8.1342C10.6424 8.14624 10.6688 8.15881 10.6947 8.17229C10.7085 8.17951 10.7221 8.18709 10.7357 8.19475C10.7622 8.20964 10.7875 8.22623 10.8128 8.2426C10.8269 8.25166 10.8411 8.2604 10.8548 8.26994C10.8731 8.28261 10.891 8.2956 10.9086 8.30901C10.922 8.31929 10.9364 8.32851 10.9496 8.33928C10.957 8.34537 10.9637 8.35259 10.9711 8.35881C10.9934 8.37783 11.0144 8.39816 11.0355 8.41838C11.0472 8.42955 11.0594 8.44008 11.0707 8.45159C11.1743 8.55746 11.2622 8.67732 11.3304 8.80803C11.3371 8.82082 11.3427 8.83412 11.349 8.84709C11.3647 8.87947 11.3795 8.91225 11.3929 8.94573C11.3977 8.95758 11.4012 8.96988 11.4056 8.98186C11.4188 9.01748 11.4303 9.05361 11.4408 9.09026C11.4435 9.09968 11.4461 9.10909 11.4486 9.11858C11.459 9.15786 11.4677 9.19749 11.475 9.23772C11.4766 9.24689 11.4794 9.25585 11.4808 9.26506C11.4864 9.29961 11.4894 9.33447 11.4925 9.36955C11.4938 9.38389 11.4966 9.39811 11.4974 9.41252L11.9974 17.9125C12.0437 18.7011 11.4706 19.3903 10.6869 19.4887L6.68687 19.9887C6.02783 20.0711 5.26636 20.1084 5 19.5L1.64488 11.1459C1.61474 11.0827 1.59133 11.0173 1.57066 10.9516C1.56738 10.9412 1.56395 10.9308 1.5609 10.9203C1.54878 10.8787 1.53901 10.8366 1.53062 10.7944C1.52763 10.7794 1.52436 10.7645 1.52183 10.7494C1.51587 10.7137 1.51151 10.6779 1.50816 10.642C1.50637 10.6231 1.50337 10.6043 1.5023 10.5854C1.49648 10.4798 1.50171 10.374 1.51793 10.2699C1.52032 10.2546 1.52384 10.2394 1.52672 10.224C1.53336 10.1886 1.54098 10.1534 1.55015 10.1186C1.55621 10.0956 1.5635 10.073 1.57066 10.0502C1.57924 10.0229 1.58883 9.99599 1.59898 9.96916C1.60767 9.94625 1.61648 9.92336 1.62632 9.9008C1.68948 9.75581 1.77487 9.61879 1.88414 9.49748C1.89584 9.48447 1.90912 9.47295 1.92125 9.46037C1.94733 9.43339 1.97388 9.40655 2.0023 9.38127C2.01681 9.36833 2.03224 9.35652 2.04722 9.34416C2.06465 9.32982 2.08172 9.31488 2.09996 9.30119C2.82439 8.75787 3.77571 8.10978 5.16343 7.78948Z" fill="#B2EE41"/>
        <path d="M8.79988 8.59987C9.26583 7.97876 10.1214 7.82199 10.7725 8.21412L10.9005 8.30006L11.127 8.47682C12.2495 9.3841 13.1739 10.6257 13.9786 11.9876C14.6262 13.0835 15.2279 14.3121 15.8067 15.6018L16.379 16.9094L16.4317 17.053C16.6594 17.7786 16.3049 18.5732 15.5909 18.8792C14.8769 19.1851 14.057 18.894 13.6886 18.2288L13.6212 18.0911L13.0665 16.8245C12.5144 15.5947 11.9677 14.4795 11.3966 13.513C10.7258 12.3778 10.0634 11.5205 9.38972 10.9348L9.09968 10.7005L8.9825 10.6018C8.42335 10.0866 8.33385 9.22124 8.79988 8.59987Z" fill="#B2EE41"/>
        <path d="M2.70465 9.02922C3.46618 8.87749 4.20794 9.33092 4.43122 10.0575L4.46833 10.207L4.56403 10.7099C5.00721 13.2013 4.96526 15.3292 4.48298 18.7118C4.36598 19.5319 3.6058 20.1022 2.78571 19.9853C1.96565 19.8683 1.39535 19.1081 1.51227 18.288C1.96563 15.1083 1.98198 13.3102 1.607 11.2167L1.52692 10.7929L1.50446 10.6415C1.43177 9.88468 1.94297 9.18115 2.70465 9.02922Z" fill="#B2EE41"/>
      </mask>
      <g mask="url(#mask0_4697_341)">
        <path d="M2.70758 9.02922C3.46911 8.87749 4.21087 9.33092 4.43415 10.0575L4.47126 10.207L4.56696 10.7099C5.01014 13.2013 4.96819 15.3292 4.4859 18.7118C4.36891 19.5319 3.60873 20.1022 2.78864 19.9853C1.96858 19.8683 1.39827 19.1081 1.5152 18.288C1.96856 15.1083 1.98491 13.3102 1.60993 11.2167L1.52985 10.7929L1.50739 10.6415C1.4347 9.88468 1.9459 9.18115 2.70758 9.02922Z" fill="#B2EE41"/>
        <path d="M6.1575 16.7843C7.04594 16.6068 7.91133 17.1357 8.17215 17.9835L8.2161 18.1573L8.39969 19.0479C8.76893 20.7868 9.1644 22.2869 9.79129 23.9835L10.1253 24.8497L10.1829 25.0196C10.4274 25.8721 9.99176 26.7884 9.15067 27.1251C8.30935 27.4616 7.36139 27.0987 6.95047 26.3126L6.87528 26.1505L6.50418 25.1846C5.80686 23.2953 5.3703 21.6313 4.97782 19.7843L4.78446 18.8428L4.75809 18.6661C4.67288 17.7832 5.26899 16.962 6.1575 16.7843Z" fill="#B2EE41"/>
        <path d="M5.16343 7.78948C6.45341 7.49186 7.99826 7.50327 9.96519 7.95061L10.3324 8.0385C10.3419 8.04066 10.3513 8.04299 10.3607 8.04534L10.3646 8.04631L10.3734 8.04826C10.416 8.05923 10.4579 8.07265 10.4994 8.08733L10.5111 8.09123C10.5247 8.09613 10.5378 8.10257 10.5511 8.10784C10.5727 8.11638 10.5944 8.12465 10.6156 8.1342C10.6424 8.14624 10.6688 8.15881 10.6947 8.17229C10.7085 8.17951 10.7221 8.18709 10.7357 8.19475C10.7622 8.20964 10.7875 8.22623 10.8128 8.2426C10.8269 8.25166 10.8411 8.2604 10.8548 8.26994C10.8731 8.28261 10.891 8.2956 10.9086 8.30901C10.922 8.31929 10.9364 8.32851 10.9496 8.33928C10.957 8.34537 10.9637 8.35259 10.9711 8.35881C10.9934 8.37782 11.0144 8.39816 11.0355 8.41838C11.0472 8.42955 11.0594 8.44008 11.0707 8.45159C11.1743 8.55746 11.2622 8.67732 11.3304 8.80803C11.3371 8.82082 11.3427 8.83412 11.349 8.84709C11.3647 8.87947 11.3795 8.91225 11.3929 8.94573C11.3977 8.95758 11.4012 8.96988 11.4056 8.98186C11.4188 9.01748 11.4303 9.05362 11.4408 9.09026C11.4435 9.09968 11.4461 9.10909 11.4486 9.11858C11.459 9.15786 11.4677 9.19749 11.475 9.23772C11.4766 9.24689 11.4794 9.25585 11.4808 9.26506C11.4864 9.29961 11.4894 9.33447 11.4925 9.36955C11.4938 9.38389 11.4966 9.39811 11.4974 9.41252L11.9974 17.9125C12.0437 18.7011 11.4706 19.3903 10.6869 19.4887L6.68687 19.9887C6.02783 20.0711 5.26636 20.1084 5 19.5L1.64488 11.1459C1.61474 11.0827 1.59133 11.0173 1.57066 10.9516C1.56738 10.9412 1.56395 10.9308 1.5609 10.9203C1.54878 10.8787 1.53901 10.8366 1.53062 10.7944C1.52763 10.7794 1.52436 10.7645 1.52183 10.7494C1.51587 10.7137 1.51151 10.6779 1.50816 10.642C1.50637 10.6231 1.50337 10.6043 1.5023 10.5854C1.49648 10.4798 1.50171 10.374 1.51793 10.2699C1.52032 10.2546 1.52384 10.2394 1.52672 10.224C1.53336 10.1886 1.54098 10.1534 1.55015 10.1186C1.55621 10.0956 1.5635 10.0729 1.57066 10.0502C1.57924 10.0229 1.58883 9.99599 1.59898 9.96916C1.60767 9.94625 1.61648 9.92336 1.62632 9.9008C1.68948 9.75581 1.77487 9.61879 1.88414 9.49748C1.89584 9.48447 1.90912 9.47295 1.92125 9.46037C1.94733 9.43339 1.97388 9.40655 2.0023 9.38127C2.01681 9.36833 2.03224 9.35652 2.04722 9.34416C2.06465 9.32982 2.08172 9.31488 2.09996 9.30119C2.82439 8.75787 3.77571 8.10978 5.16343 7.78948Z" fill="#B2EE41"/>
        <g filter="url(#filter2_f_4697_341)">
          <path d="M12 20.5C10.9996 21 11.5 29.5 13.5004 28" stroke="black" stroke-opacity="0.3" stroke-width="3" stroke-linecap="round" stroke-linejoin="round"/>
        </g>
        <path d="M9.72511 16.3027C10.6042 16.0829 11.4945 16.5698 11.7954 17.4043L11.8472 17.5752L12.0269 18.2578C12.2063 18.899 12.3976 19.4337 12.6939 19.9892C13.0402 20.6386 13.5657 21.3809 14.4741 22.3388L14.8872 22.7627L15.0073 22.8955C15.568 23.5828 15.5279 24.5965 14.8872 25.2373C14.2465 25.878 13.2328 25.918 12.5454 25.3574L12.4126 25.2373L11.9341 24.747C10.8668 23.6216 10.1346 22.627 9.60597 21.6357C9.15227 20.785 8.87472 19.9837 8.65577 19.2011L8.45265 18.4248L8.41749 18.249C8.29023 17.3712 8.84622 16.5227 9.72511 16.3027Z" fill="#B2EE41"/>
        <mask id="mask1_4697_341" style="mask-type:alpha" maskUnits="userSpaceOnUse" x="1" y="7" width="15" height="21">
          <path d="M9.72511 16.3027C10.6042 16.0829 11.4945 16.5698 11.7954 17.4043L11.8472 17.5752L12.0269 18.2578C12.2063 18.899 12.3976 19.4337 12.6939 19.9892C13.0402 20.6386 13.5657 21.3809 14.4741 22.3388L14.8872 22.7627L15.0073 22.8955C15.568 23.5828 15.5279 24.5965 14.8872 25.2373C14.2465 25.878 13.2328 25.918 12.5454 25.3574L12.4126 25.2373L11.9341 24.747C10.8668 23.6216 10.1346 22.627 9.60597 21.6357C9.15227 20.785 8.87472 19.9837 8.65577 19.2011L8.45265 18.4248L8.41749 18.249C8.29023 17.3712 8.84622 16.5227 9.72511 16.3027Z" fill="#B2EE41"/>
          <path d="M6.1575 16.7843C7.04594 16.6068 7.91133 17.1357 8.17215 17.9835L8.2161 18.1573L8.39969 19.0479C8.76893 20.7868 9.1644 22.2869 9.79129 23.9835L10.1253 24.8497L10.1829 25.0196C10.4274 25.8721 9.99176 26.7884 9.15067 27.1251C8.30935 27.4616 7.36139 27.0987 6.95047 26.3126L6.87528 26.1505L6.50418 25.1846C5.80686 23.2953 5.3703 21.6313 4.97782 19.7843L4.78446 18.8428L4.75809 18.6661C4.67288 17.7832 5.26899 16.962 6.1575 16.7843Z" fill="#B2EE41"/>
          <path d="M5.16343 7.78948C6.45341 7.49186 7.99826 7.50327 9.96519 7.95061L10.3324 8.0385C10.3419 8.04066 10.3513 8.04299 10.3607 8.04534L10.3646 8.04631L10.3734 8.04826C10.416 8.05923 10.4579 8.07265 10.4994 8.08733L10.5111 8.09123C10.5247 8.09613 10.5378 8.10257 10.5511 8.10784C10.5727 8.11638 10.5944 8.12465 10.6156 8.1342C10.6424 8.14624 10.6688 8.15881 10.6947 8.17229C10.7085 8.17951 10.7221 8.18709 10.7357 8.19475C10.7622 8.20964 10.7875 8.22623 10.8128 8.2426C10.8269 8.25166 10.8411 8.2604 10.8548 8.26994C10.8731 8.28261 10.891 8.2956 10.9086 8.30901C10.922 8.31929 10.9364 8.32851 10.9496 8.33928C10.957 8.34537 10.9637 8.35259 10.9711 8.35881C10.9934 8.37782 11.0144 8.39816 11.0355 8.41838C11.0472 8.42955 11.0594 8.44008 11.0707 8.45159C11.1743 8.55746 11.2622 8.67732 11.3304 8.80803C11.3371 8.82082 11.3427 8.83412 11.349 8.84709C11.3647 8.87947 11.3795 8.91225 11.3929 8.94573C11.3977 8.95758 11.4012 8.96988 11.4056 8.98186C11.4188 9.01748 11.4303 9.05362 11.4408 9.09026C11.4435 9.09968 11.4461 9.10909 11.4486 9.11858C11.459 9.15786 11.4677 9.19749 11.475 9.23772C11.4766 9.24689 11.4794 9.25585 11.4808 9.26506C11.4864 9.29961 11.4894 9.33447 11.4925 9.36955C11.4938 9.38389 11.4966 9.39811 11.4974 9.41252L11.9974 17.9125C12.0437 18.7011 11.4706 19.3903 10.6869 19.4887L6.68687 19.9887C6.02783 20.0711 5.26636 20.1084 5 19.5L1.64488 11.1459C1.61474 11.0827 1.59133 11.0173 1.57066 10.9516C1.56738 10.9412 1.56395 10.9308 1.5609 10.9203C1.54878 10.8787 1.53901 10.8366 1.53062 10.7944C1.52763 10.7794 1.52436 10.7645 1.52183 10.7494C1.51587 10.7137 1.51151 10.6779 1.50816 10.642C1.50637 10.6231 1.50337 10.6043 1.5023 10.5854C1.49648 10.4798 1.50171 10.374 1.51793 10.2699C1.52032 10.2546 1.52384 10.2394 1.52672 10.224C1.53336 10.1886 1.54098 10.1534 1.55015 10.1186C1.55621 10.0956 1.5635 10.0729 1.57066 10.0502C1.57924 10.0229 1.58883 9.99599 1.59898 9.96916C1.60767 9.94625 1.61648 9.92336 1.62632 9.9008C1.68948 9.75581 1.77487 9.61879 1.88414 9.49748C1.89584 9.48447 1.90912 9.47295 1.92125 9.46037C1.94733 9.43339 1.97388 9.40655 2.0023 9.38127C2.01681 9.36833 2.03224 9.35652 2.04722 9.34416C2.06465 9.32982 2.08172 9.31488 2.09996 9.30119C2.82439 8.75787 3.77571 8.10978 5.16343 7.78948Z" fill="#B2EE41"/>
        </mask>
        <g mask="url(#mask1_4697_341)">
          <g filter="url(#filter3_f_4697_341)">
            <path d="M14 13.5L14.5 19" stroke="black" stroke-opacity="0.56" stroke-width="3" stroke-linecap="round" stroke-linejoin="round"/>
          </g>
        </g>
        <mask id="mask2_4697_341" style="mask-type:alpha" maskUnits="userSpaceOnUse" x="1" y="9" width="4" height="12">
          <path d="M1.5064 10.6426C1.50974 10.6783 1.51416 10.7144 1.52007 10.75C1.52257 10.7649 1.5259 10.7801 1.52886 10.7949C1.53722 10.837 1.54709 10.8794 1.55914 10.9209C1.56214 10.9312 1.56567 10.9419 1.5689 10.9521C1.58952 11.0177 1.6131 11.0834 1.64312 11.1465L4.53179 18.3389C4.51503 18.4617 4.50096 18.5867 4.48297 18.7129C4.36594 19.5329 3.60576 20.1032 2.7857 19.9863C1.96566 19.8693 1.39538 19.1091 1.51226 18.2891C1.96561 15.1093 1.98195 13.3112 1.60699 11.2178L1.52691 10.7939L1.50445 10.6426C1.5033 10.6306 1.50336 10.6184 1.5025 10.6064C1.5038 10.6185 1.50525 10.6305 1.5064 10.6426ZM1.51422 10.2803C1.55153 10.0296 1.65155 9.7949 1.80132 9.59668C1.72991 9.6918 1.67115 9.79446 1.62457 9.90137C1.61475 9.92385 1.60589 9.94688 1.59722 9.96973C1.58711 9.99647 1.57746 10.0236 1.5689 10.0508C1.56177 10.0734 1.55444 10.0962 1.54839 10.1191C1.53925 10.1539 1.53159 10.1893 1.52496 10.2246C1.5221 10.2398 1.51856 10.2552 1.51617 10.2705C1.51568 10.2737 1.51469 10.2771 1.51422 10.2803ZM1.99761 9.38379C2.02234 9.36162 2.04753 9.33989 2.07379 9.31934L2.0982 9.30176C2.08 9.31542 2.06287 9.33041 2.04547 9.34473C2.0305 9.35706 2.01503 9.36892 2.00054 9.38184C1.99968 9.38261 1.99848 9.38301 1.99761 9.38379ZM1.50054 10.5615C1.49872 10.5179 1.49858 10.4747 1.50054 10.4316C1.49851 10.4749 1.49886 10.5182 1.50054 10.5615ZM1.50054 10.4248C1.50298 10.3761 1.50712 10.3279 1.51422 10.2803C1.50707 10.3281 1.50304 10.3764 1.50054 10.4248ZM1.91949 9.46094C1.94487 9.43459 1.97029 9.40828 1.99761 9.38379C1.97018 9.40838 1.94476 9.43479 1.91949 9.46094Z" fill="#B2EE41"/>
        </mask>
        <g mask="url(#mask2_4697_341)">
          <g filter="url(#filter4_d_4697_341)">
            <path d="M5.1605 7.79045C6.45048 7.49284 7.99533 7.50425 9.96226 7.95159L10.3294 8.03948C10.3389 8.04163 10.3483 8.04397 10.3578 8.04631L10.3617 8.04729L10.3705 8.04924C10.4131 8.06021 10.4549 8.07363 10.4964 8.0883L10.5082 8.09221C10.5217 8.09711 10.5348 8.10355 10.5482 8.10881C10.5698 8.11736 10.5915 8.12563 10.6127 8.13518C10.6395 8.14722 10.6659 8.15979 10.6918 8.17326C10.7056 8.18049 10.7192 8.18807 10.7328 8.19573C10.7593 8.21062 10.7845 8.22721 10.8099 8.24358C10.8239 8.25264 10.8382 8.26137 10.8519 8.27092C10.8702 8.28358 10.888 8.29657 10.9056 8.30998C10.9191 8.32026 10.9335 8.32949 10.9466 8.34026C10.9541 8.34635 10.9608 8.35357 10.9681 8.35979C10.9905 8.3788 11.0115 8.39914 11.0326 8.41936C11.0442 8.43052 11.0565 8.44106 11.0677 8.45256C11.1714 8.55843 11.2593 8.67829 11.3275 8.80901C11.3342 8.82179 11.3398 8.8351 11.3461 8.84807C11.3618 8.88045 11.3766 8.91323 11.39 8.9467C11.3947 8.95856 11.3983 8.97085 11.4027 8.98284C11.4159 9.01845 11.4273 9.05459 11.4378 9.09123C11.4405 9.10066 11.4432 9.11007 11.4457 9.11955C11.4561 9.15884 11.4648 9.19847 11.472 9.23869C11.4737 9.24786 11.4764 9.25683 11.4779 9.26604C11.4834 9.30058 11.4865 9.33545 11.4896 9.37053C11.4909 9.38487 11.4936 9.39909 11.4945 9.4135L11.9945 17.9135C12.0408 18.7021 11.4676 19.3913 10.6839 19.4897L6.68394 19.9897C6.0249 20.0721 5.38975 19.7113 5.12339 19.103L1.64195 11.1469C1.61181 11.0836 1.5884 11.0182 1.56773 10.9526C1.56445 10.9421 1.56102 10.9318 1.55797 10.9213C1.54585 10.8796 1.53608 10.8376 1.52769 10.7953C1.5247 10.7804 1.52143 10.7655 1.5189 10.7504C1.51294 10.7147 1.50858 10.6789 1.50523 10.643C1.50344 10.6241 1.50044 10.6053 1.49937 10.5864C1.49355 10.4808 1.49878 10.375 1.515 10.2709C1.51739 10.2555 1.52091 10.2403 1.52379 10.225C1.53043 10.1896 1.53805 10.1544 1.54722 10.1196C1.55328 10.0966 1.56057 10.0739 1.56773 10.0512C1.57631 10.0239 1.5859 9.99696 1.59605 9.97014C1.60474 9.94722 1.61355 9.92433 1.6234 9.90178C1.68655 9.75678 1.77194 9.61976 1.88121 9.49846C1.89291 9.48545 1.90619 9.47393 1.91832 9.46135C1.9444 9.43437 1.97095 9.40753 1.99937 9.38225C2.01388 9.36931 2.02931 9.35749 2.04429 9.34514C2.06172 9.3308 2.07879 9.31585 2.09703 9.30217C2.82146 8.75884 3.77278 8.11076 5.1605 7.79045Z" fill="#B2EE41"/>
          </g>
        </g>
        <path d="M8.79988 8.59987C9.26583 7.97876 10.1214 7.82199 10.7725 8.21412L10.9005 8.30006L11.127 8.47682C12.2495 9.3841 13.1739 10.6257 13.9786 11.9876C14.6262 13.0835 15.2279 14.3121 15.8067 15.6018L16.379 16.9094L16.4317 17.053C16.6594 17.7786 16.3049 18.5732 15.5909 18.8792C14.8769 19.1851 14.057 18.894 13.6886 18.2288L13.6212 18.0911L13.0665 16.8245C12.5144 15.5947 11.9677 14.4795 11.3966 13.513C10.7258 12.3778 10.0634 11.5205 9.38972 10.9348L9.09968 10.7005L8.9825 10.6018C8.42335 10.0866 8.33385 9.22124 8.79988 8.59987Z" fill="#B2EE41"/>
        <mask id="mask3_4697_341" style="mask-type:alpha" maskUnits="userSpaceOnUse" x="1" y="7" width="11" height="13">
          <path d="M5.16343 7.78948C6.45341 7.49186 7.99826 7.50327 9.96519 7.95061L10.3324 8.0385C10.3419 8.04066 10.3513 8.04299 10.3607 8.04534L10.3646 8.04631L10.3734 8.04826C10.416 8.05923 10.4579 8.07265 10.4994 8.08733L10.5111 8.09123C10.5247 8.09613 10.5378 8.10257 10.5511 8.10784C10.5727 8.11638 10.5944 8.12465 10.6156 8.1342C10.6424 8.14624 10.6688 8.15881 10.6947 8.17229C10.7085 8.17951 10.7221 8.18709 10.7357 8.19475C10.7622 8.20964 10.7875 8.22623 10.8128 8.2426C10.8269 8.25166 10.8411 8.2604 10.8548 8.26994C10.8731 8.28261 10.891 8.2956 10.9086 8.30901C10.922 8.31929 10.9364 8.32851 10.9496 8.33928C10.957 8.34537 10.9637 8.35259 10.9711 8.35881C10.9934 8.37782 11.0144 8.39816 11.0355 8.41838C11.0472 8.42955 11.0594 8.44008 11.0707 8.45159C11.1743 8.55746 11.2622 8.67732 11.3304 8.80803C11.3371 8.82082 11.3427 8.83412 11.349 8.84709C11.3647 8.87947 11.3795 8.91225 11.3929 8.94573C11.3977 8.95758 11.4012 8.96988 11.4056 8.98186C11.4188 9.01748 11.4303 9.05362 11.4408 9.09026C11.4435 9.09968 11.4461 9.10909 11.4486 9.11858C11.459 9.15786 11.4677 9.19749 11.475 9.23772C11.4766 9.24689 11.4794 9.25585 11.4808 9.26506C11.4864 9.29961 11.4894 9.33447 11.4925 9.36955C11.4938 9.38389 11.4966 9.39811 11.4974 9.41252L11.9974 17.9125C12.0437 18.7011 11.4706 19.3903 10.6869 19.4887L6.68687 19.9887C6.02783 20.0711 5.39268 19.7104 5.12632 19.102L1.64488 11.1459C1.61474 11.0827 1.59133 11.0173 1.57066 10.9516C1.56738 10.9412 1.56395 10.9308 1.5609 10.9203C1.54878 10.8787 1.53901 10.8366 1.53062 10.7944C1.52763 10.7794 1.52436 10.7645 1.52183 10.7494C1.51587 10.7137 1.51151 10.6779 1.50816 10.642C1.50637 10.6231 1.50337 10.6043 1.5023 10.5854C1.49648 10.4798 1.50171 10.374 1.51793 10.2699C1.52032 10.2546 1.52384 10.2394 1.52672 10.224C1.53336 10.1886 1.54098 10.1534 1.55015 10.1186C1.55621 10.0956 1.5635 10.0729 1.57066 10.0502C1.57924 10.0229 1.58883 9.99599 1.59898 9.96916C1.60767 9.94625 1.61648 9.92336 1.62632 9.9008C1.68948 9.75581 1.77487 9.61879 1.88414 9.49748C1.89584 9.48447 1.90912 9.47295 1.92125 9.46037C1.94733 9.43339 1.97388 9.40655 2.0023 9.38127C2.01681 9.36833 2.03224 9.35652 2.04722 9.34416C2.06465 9.32982 2.08172 9.31488 2.09996 9.30119C2.82439 8.75787 3.77571 8.10978 5.16343 7.78948Z" fill="#B2EE41"/>
        </mask>
        <g mask="url(#mask3_4697_341)">
          <g filter="url(#filter5_d_4697_341)">
            <circle cx="4.75926" cy="4.75926" r="3.75926" fill="#B2EE41"/>
          </g>
        </g>
        <g filter="url(#filter6_i_4697_341)">
          <circle cx="4.75926" cy="4.75926" r="3.75926" fill="#B2EE41"/>
        </g>
      </g>
    </g>
  </g>
  <defs>
    <filter id="filter0_i_4697_341" x="9" y="1" width="15" height="29" filterUnits="userSpaceOnUse" color-interpolation-filters="sRGB">
      <feFlood flood-opacity="0" result="BackgroundImageFix"/>
      <feBlend mode="normal" in="SourceGraphic" in2="BackgroundImageFix" result="shape"/>
      <feColorMatrix in="SourceAlpha" type="matrix" values="0 0 0 0 0 0 0 0 0 0 0 0 0 0 0 0 0 0 127 0" result="hardAlpha"/>
      <feOffset/>
      <feGaussianBlur stdDeviation="0.9"/>
      <feComposite in2="hardAlpha" operator="arithmetic" k2="-1" k3="1"/>
      <feColorMatrix type="matrix" values="0 0 0 0 1 0 0 0 0 1 0 0 0 0 1 0 0 0 0.13 0"/>
      <feBlend mode="normal" in2="shape" result="effect1_innerShadow_4697_341"/>
    </filter>
    <filter id="filter1_d_4697_341" x="0.3" y="0.3" width="18.9" height="29.651" filterUnits="userSpaceOnUse" color-interpolation-filters="sRGB">
      <feFlood flood-opacity="0" result="BackgroundImageFix"/>
      <feColorMatrix in="SourceAlpha" type="matrix" values="0 0 0 0 0 0 0 0 0 0 0 0 0 0 0 0 0 0 127 0" result="hardAlpha"/>
      <feOffset dx="1" dy="1"/>
      <feGaussianBlur stdDeviation="0.85"/>
      <feComposite in2="hardAlpha" operator="out"/>
      <feColorMatrix type="matrix" values="0 0 0 0 1 0 0 0 0 1 0 0 0 0 1 0 0 0 0.15 0"/>
      <feBlend mode="normal" in2="BackgroundImageFix" result="effect1_dropShadow_4697_341"/>
      <feBlend mode="normal" in="SourceGraphic" in2="effect1_dropShadow_4697_341" result="shape"/>
    </filter>
    <filter id="filter2_f_4697_341" x="6.7" y="15.7" width="11.6" height="17.2787" filterUnits="userSpaceOnUse" color-interpolation-filters="sRGB">
      <feFlood flood-opacity="0" result="BackgroundImageFix"/>
      <feBlend mode="normal" in="SourceGraphic" in2="BackgroundImageFix" result="shape"/>
      <feGaussianBlur stdDeviation="1.65" result="effect1_foregroundBlur_4697_341"/>
    </filter>
    <filter id="filter3_f_4697_341" x="8.5" y="8" width="11.5" height="16.5" filterUnits="userSpaceOnUse" color-interpolation-filters="sRGB">
      <feFlood flood-opacity="0" result="BackgroundImageFix"/>
      <feBlend mode="normal" in="SourceGraphic" in2="BackgroundImageFix" result="shape"/>
      <feGaussianBlur stdDeviation="2" result="effect1_foregroundBlur_4697_341"/>
    </filter>
    <filter id="filter4_d_4697_341" x="-0.50293" y="7.58789" width="15.5" height="17.9131" filterUnits="userSpaceOnUse" color-interpolation-filters="sRGB">
      <feFlood flood-opacity="0" result="BackgroundImageFix"/>
      <feColorMatrix in="SourceAlpha" type="matrix" values="0 0 0 0 0 0 0 0 0 0 0 0 0 0 0 0 0 0 127 0" result="hardAlpha"/>
      <feOffset dx="0.5" dy="3"/>
      <feGaussianBlur stdDeviation="1.25"/>
      <feComposite in2="hardAlpha" operator="out"/>
      <feColorMatrix type="matrix" values="0 0 0 0 0 0 0 0 0 0 0 0 0 0 0 0 0 0 0.18 0"/>
      <feBlend mode="normal" in2="BackgroundImageFix" result="effect1_dropShadow_4697_341"/>
      <feBlend mode="normal" in="SourceGraphic" in2="effect1_dropShadow_4697_341" result="shape"/>
    </filter>
    <filter id="filter5_d_4697_341" x="-0.5" y="0" width="11.5186" height="11.5186" filterUnits="userSpaceOnUse" color-interpolation-filters="sRGB">
      <feFlood flood-opacity="0" result="BackgroundImageFix"/>
      <feColorMatrix in="SourceAlpha" type="matrix" values="0 0 0 0 0 0 0 0 0 0 0 0 0 0 0 0 0 0 127 0" result="hardAlpha"/>
      <feOffset dx="0.5" dy="1"/>
      <feGaussianBlur stdDeviation="1"/>
      <feComposite in2="hardAlpha" operator="out"/>
      <feColorMatrix type="matrix" values="0 0 0 0 0 0 0 0 0 0 0 0 0 0 0 0 0 0 0.18 0"/>
      <feBlend mode="normal" in2="BackgroundImageFix" result="effect1_dropShadow_4697_341"/>
      <feBlend mode="normal" in="SourceGraphic" in2="effect1_dropShadow_4697_341" result="shape"/>
    </filter>
    <filter id="filter6_i_4697_341" x="1" y="0" width="7.51855" height="8.51855" filterUnits="userSpaceOnUse" color-interpolation-filters="sRGB">
      <feFlood flood-opacity="0" result="BackgroundImageFix"/>
      <feBlend mode="normal" in="SourceGraphic" in2="BackgroundImageFix" result="shape"/>
      <feColorMatrix in="SourceAlpha" type="matrix" values="0 0 0 0 0 0 0 0 0 0 0 0 0 0 0 0 0 0 127 0" result="hardAlpha"/>
      <feOffset dy="-1"/>
      <feGaussianBlur stdDeviation="1"/>
      <feComposite in2="hardAlpha" operator="arithmetic" k2="-1" k3="1"/>
      <feColorMatrix type="matrix" values="0 0 0 0 0 0 0 0 0 0 0 0 0 0 0 0 0 0 0.13 0"/>
      <feBlend mode="normal" in2="shape" result="effect1_innerShadow_4697_341"/>
    </filter>
  </defs>
</svg>