<svg width="15" height="29" viewBox="0 0 15 29" fill="none" xmlns="http://www.w3.org/2000/svg">
<g filter="url(#filter0_i_4697_286)">
<path d="M8.41811 7.97363C9.26746 8.00132 9.91969 8.06504 10.3986 8.13281C10.7175 8.17798 10.9612 8.2256 11.1349 8.26465C11.2214 8.2841 11.2917 8.30107 11.3449 8.31543C11.371 8.32251 11.3939 8.32955 11.4122 8.33496C11.4212 8.33761 11.4305 8.34057 11.4376 8.34277C11.4408 8.34375 11.4446 8.34483 11.4474 8.3457L11.4523 8.34668L11.4542 8.34766C11.4542 8.34766 11.4539 8.34827 11.4533 8.35059H11.4552L11.4562 8.34863C11.4686 8.35259 11.4811 8.35806 11.4933 8.3623C11.5031 8.3657 11.5129 8.36945 11.5226 8.37305C11.5682 8.38992 11.6125 8.40891 11.6554 8.42969C11.6602 8.43201 11.6653 8.43415 11.6701 8.43652C11.7119 8.45731 11.752 8.48063 11.7912 8.50488C11.8022 8.51171 11.8135 8.51828 11.8244 8.52539C11.8616 8.54982 11.8972 8.57613 11.9318 8.60352C11.937 8.60767 11.9432 8.61101 11.9484 8.61523L11.9777 8.63867C12.0538 8.70397 12.1218 8.77729 12.1828 8.85547C12.1844 8.85759 12.1869 8.85921 12.1886 8.86133C12.1948 8.86941 12.2001 8.87853 12.2062 8.88672C12.2314 8.9209 12.2552 8.95607 12.2775 8.99219C12.2846 9.00373 12.2912 9.01564 12.298 9.02734C12.3193 9.06418 12.3384 9.10213 12.3566 9.14062C12.3615 9.15103 12.3666 9.16138 12.3712 9.17188C12.3891 9.21223 12.4057 9.25309 12.4201 9.29492C12.4233 9.30436 12.4268 9.31375 12.4298 9.32324C12.4788 9.47627 12.5019 9.63757 12.4992 9.80176C12.9346 11.9384 13.7262 15.1273 14.5578 17.8076L14.923 18.9434C15.1849 19.7257 14.7603 20.5719 13.9747 20.833C13.189 21.0936 12.3393 20.6709 12.0773 19.8887L11.6945 18.7012C11.4729 17.9872 11.2547 17.2409 11.0451 16.4883L10.9152 16.0146C10.8969 16.0664 10.8752 16.1163 10.8517 16.165V18.8262C10.8534 18.8566 10.8566 18.8871 10.8566 18.918V27.3818C10.8565 28.2752 10.1288 28.9998 9.23158 29C8.33419 29 7.6067 28.2753 7.60658 27.3818V18.918H7.35658V27.3818C7.35647 28.2752 6.62879 28.9998 5.73158 29C4.83419 29 4.1067 28.2753 4.10658 27.3818V18.918H4.1017V16.0508C4.09707 16.0387 4.09139 16.0269 4.08705 16.0146L4.0851 16.0098C3.8358 16.9232 3.57427 17.8363 3.3058 18.7012L2.92299 19.8887C2.66084 20.6709 1.81129 21.0938 1.02553 20.833C0.240237 20.5718 -0.184471 19.7256 0.0772852 18.9434L0.44252 17.8076C1.2744 15.1262 2.06575 11.9355 2.50111 9.79883V9.78809C2.50045 9.68794 2.50957 9.58884 2.52846 9.49219C2.53285 9.46956 2.53865 9.44721 2.54408 9.4248C2.55152 9.39432 2.55919 9.36387 2.5685 9.33398C2.57422 9.31552 2.58159 9.29755 2.58803 9.2793C2.59907 9.24811 2.61013 9.21688 2.62318 9.18652C2.63236 9.16515 2.64229 9.14402 2.65248 9.12305C2.66572 9.09582 2.6806 9.06936 2.69545 9.04297C2.70665 9.02307 2.71748 9.00283 2.72963 8.9834C2.74448 8.95961 2.7613 8.93701 2.77748 8.91406C2.78962 8.89687 2.8007 8.87807 2.81361 8.86133C2.81726 8.85662 2.82163 8.85232 2.82533 8.84766C2.88814 8.76813 2.95866 8.69389 3.03725 8.62793C3.0527 8.615 3.06917 8.60309 3.0851 8.59082C3.11491 8.5678 3.14613 8.54625 3.17787 8.52539C3.18983 8.51754 3.20183 8.50945 3.214 8.50195C3.2468 8.48174 3.2809 8.46311 3.31557 8.44531C3.3295 8.43816 3.34341 8.43055 3.35756 8.42383C3.3952 8.40597 3.43414 8.38989 3.47377 8.375C3.48538 8.37065 3.49721 8.36637 3.50893 8.3623C3.52128 8.35801 3.53351 8.35264 3.54604 8.34863V8.35059H3.54799C3.54737 8.34846 3.54701 8.34766 3.54701 8.34766L3.54994 8.34668L3.55482 8.3457C3.5576 8.34484 3.56142 8.34374 3.56459 8.34277C3.5717 8.34059 3.58102 8.33761 3.58998 8.33496C3.60832 8.32957 3.63125 8.3225 3.65736 8.31543C3.71048 8.30108 3.7809 8.28409 3.86732 8.26465C4.04096 8.22561 4.28473 8.17799 4.60365 8.13281C5.24222 8.04242 6.18845 7.95901 7.50111 7.95898L8.41811 7.97363Z" fill="#222222"/>
<path d="M7.50014 0C9.57608 0.000183092 11.2588 1.6834 11.2589 3.75977C11.2589 5.83624 9.57616 7.51935 7.50014 7.51953C5.42396 7.51953 3.74037 5.83636 3.74037 3.75977C3.7405 1.68328 5.42403 0 7.50014 0Z" fill="#222222"/>
</g>
<defs>
<filter id="filter0_i_4697_286" x="0" y="0" width="15" height="29" filterUnits="userSpaceOnUse" color-interpolation-filters="sRGB">
<feFlood flood-opacity="0" result="BackgroundImageFix"/>
<feBlend mode="normal" in="SourceGraphic" in2="BackgroundImageFix" result="shape"/>
<feColorMatrix in="SourceAlpha" type="matrix" values="0 0 0 0 0 0 0 0 0 0 0 0 0 0 0 0 0 0 127 0" result="hardAlpha"/>
<feOffset/>
<feGaussianBlur stdDeviation="0.9"/>
<feComposite in2="hardAlpha" operator="arithmetic" k2="-1" k3="1"/>
<feColorMatrix type="matrix" values="0 0 0 0 1 0 0 0 0 1 0 0 0 0 1 0 0 0 0.13 0"/>
<feBlend mode="normal" in2="shape" result="effect1_innerShadow_4697_286"/>
</filter>
</defs>
</svg>
